<svg xmlns="http://www.w3.org/2000/svg" fill="none" viewBox="0 0 100 100">
  <g fill-rule="evenodd" clip-path="url(#a)" clip-rule="evenodd">
    <path fill="#fff" d="M67.0279 27.348c-.978.9635-1.5699 1.484-1.6873 1.484-.1461 0-.2763.1296-.703.7011-.1731.2316-.5096.5205-.7479.6421-.2383.1215-.4657.3228-.5051.4468-.042.1322-.1694.226-.3069.226-.1291 0-.2061.0288-.1705.0644.0596.0596-.8916 1.0556-1.0083 1.0556-.0289 0-.2291.2016-.4452.448-.2159.2464-.4875.448-.6031.448-.116 0-.2106.0428-.2106.0955 0 .252-.6913.8005-1.0088.8005h-.3352v-1.1841c0-.8697-.042-1.2259-.1579-1.3418-.0871-.0871-.1775-.2161-.2011-.287-.0456-.1372-.7607.1669-.7613.3237 0 .0448-.1512.2576-.3357.4732s-.3357.4298-.3357.476c-.0003.0462-.1011.084-.2243.084-.182 0-.224-.0748-.224-.3987 0-.2372-.0454-.3705-.112-.3293-.0616.0381-.112-.0092-.112-.1053 0-.1733-.3783-.6227-.5242-.6227-.1069 0-.8198.7913-.8198.91 0 .054-.0504.098-.112.098s-.112.1008-.112.224-.0504.224-.112.224-.112.0974-.112.2164c0 .119-.1008.2484-.224.2876-.1232.0392-.224.1182-.224.1756 0 .0574-.3276.1044-.728.1044-.4108 0-.728.0487-.728.112 0 .0616-.1764.112-.392.112s-.392.0504-.392.112-.0846.112-.1882.112c-.2315 0-.8332.1915-1.4627.4654-.2609.1136-.6546.2066-.8744.2066-.238 0-.3719.0454-.3307.112.0381.0616-.0092.112-.1053.112-.096 0-.1747.0504-.1747.112s-.103.112-.2288.112c-.1257 0-.3368.1008-.469.224-.1321.1232-.357.224-.4992.224-.1425 0-.259.0412-.259.0913 0 .1145-.8627.5807-1.0746.5807-.1815 0-.2103.1781-.0454.28.2853.1764.0997.392-.3374.392-.4841 0-.8599.1632-1.0956.476-.0812.1078-.2204.196-.3094.196-.0888 0-.1616.0504-.1616.112s-.0759.112-.1686.112c-.0926 0-.4152.252-.7168.56-.3015.308-.5913.5603-.6434.5608-.0524.0003-.1812.1515-.2859.336-.1176.2064-.2819.3352-.4275.3352-.4819 0-.2436.6096.2542.6507.7034.0583.4682.2453-.3083.2453-.6952 0-1.6237.59-1.6237 1.0315 0 .0445-.1764.2573-.392.4729s-.392.4441-.392.508c0 .0635-.0504.1156-.112.1156s-.112.0661-.112.147c0 .0806-.1008.2551-.224.3872-.1232.1322-.224.2929-.224.357 0 .0642-.0504.1168-.112.1168s-.112.0756-.112.168c0 .0924-.0504.168-.112.168s-.112.0756-.112.168c0 .0924-.0504.168-.112.168s-.112.0742-.112.1646c0 .0905-.1042.35-.2316.5768-.3116.555-.2153.5987 1.3236.6009.7641.0011 1.26.0457 1.26.1137 0 .0616-.2268.112-.504.112s-.504.0504-.504.112-.2478.112-.5508.112c-.3026 0-.5672.0476-.588.1058-.0204.058-.327.1171-.6812.1311-.5925.0235-.644.0465-.644.2861 0 .1437-.0504.261-.112.261s-.112.0986-.112.2187c0 .2497-.2251.7893-.3296.7893-.0383 0-.1366.2268-.2184.504-.0817.2772-.1934.504-.2483.504-.0549 0-.0997.1764-.0997.392s-.0504.392-.112.392-.112.0764-.112.1697c0 .2716-.2705 1.0623-.3632 1.0623-.0467 0-.0848.1512-.0848.336 0 .1848-.0504.336-.112.336s-.112.126-.112.28c0 .2052.0596.28.224.28.1232 0 .224-.0504.224-.112s.126-.112.28-.112c.154 0 .28-.0504.28-.112s.1733-.112.3853-.112c.2119 0 .4166-.0504.4547-.112.0381-.0616.1924-.112.3427-.112.1504 0 .2733.0504.2733.112s-.0526.112-.1168.112c-.0641 0-.2248.1008-.357.224-.1321.1232-.3348.224-.4499.224-.1154 0-.1831.0428-.1507.0952.0322.0524-.0767.1658-.2419.252-.5334.278-.9097.7728-.5877.7728.0616 0 .112.1008.112.224s.0504.224.112.224.112.0756.112.168c0 .0924.0504.168.112.168s.112.0526.112.1168c0 .0641.1008.2248.224.357.1232.1321.224.3066.224.3872 0 .0809.0504.147.112.147s.112.0756.112.168c0 .0924.0504.168.112.168s.112.0756.112.168c0 .0924.0504.168.112.168s.112.1008.112.224c0 .1243.0748.224.168.224.0924 0 .168-.0504.168-.112s.0703-.112.156-.112c.0859 0 .185-.0756.2206-.168.0353-.0924.1294-.168.2086-.168.0792 0 .2069-.1417.2836-.315.0765-.1733.24-.4231.3632-.5552.1232-.1322.224-.3685.224-.525 0-.1566.0504-.2848.112-.2848s.112-.1543.112-.3427c0-.1997.0468-.3136.112-.2733.0683.0423.112-.1274.112-.4348 0-.2772.0504-.5351.112-.5732.0616-.0381.112-.2397.112-.448s.0504-.4099.112-.448c.0616-.0381.112-.2397.112-.448s.0504-.4099.112-.448c.0616-.0381.112-.1924.112-.3427 0-.1504.0504-.2733.112-.2733s.112-.1764.112-.392.0504-.392.112-.392.112-.1512.112-.336c0-.1848.0504-.336.112-.336s.112-.1512.112-.336c0-.1848.0504-.336.112-.336s.112-.0977.112-.2173c0-.1195.0504-.2486.112-.2867.0616-.0381.112-.1672.112-.2867 0-.1196.0504-.2173.112-.2173s.112-.1512.112-.336c0-.1848.0504-.336.112-.336s.112-.1008.112-.224.0504-.224.112-.224.112-.0756.112-.168c0-.0924.0504-.168.112-.168s.112-.1008.112-.224.0504-.224.112-.224.112-.1008.112-.224.0504-.224.112-.224.112-.1008.112-.224.0381-.224.0846-.224c.0467 0 .1475-.1417.2242-.315.0765-.1733.24-.4231.3632-.5552.1232-.1322.224-.2929.224-.357 0-.0642.0504-.1168.112-.1168s.112-.0498.112-.1112c0-.1722.7518-1.1158.8282-1.0393.0373.0372.0678-.0087.0678-.1022 0-.2321 2.3766-2.6673 2.6034-2.6673.0997 0 .289-.1512.4206-.336.1316-.1848.3184-.336.4147-.336.0966 0 .2923-.126.4351-.28.1428-.154.2996-.2792.3489-.2783.1467.0025-1.5434 1.554-1.7721 1.6265-.1157.0367-.2106.1529-.2106.2579 0 .1053-.3528.5309-.784.9464-.4312.4152-.784.8204-.784.9002 0 .1727-.411.6353-.5645.6353-.0591 0-.1075.1008-.1075.224s-.0504.224-.112.224-.112.0784-.112.1742c0 .0957-.2016.4709-.448.8338s-.448.7381-.448.8338c0 .0958-.0504.1742-.112.1742s-.112.0756-.112.168c0 .0924-.0504.168-.112.168s-.112.0697-.112.1551c0 .2324-.2912.7485-.3749.6645-.0403-.0401-.0731.0616-.0731.2256 0 .1644-.0504.2988-.112.2988s-.112.1008-.112.224-.0557.224-.124.224c-.0681 0-.0975.0694-.0647.154.0325.0848-.0126.292-.1003.4609-.0873.1685-.159.3766-.159.462 0 .0854-.0504.1551-.112.1551s-.112.126-.112.28c0 .154-.0504.28-.112.28s-.112.1512-.112.336c0 .1848-.0504.336-.112.336s-.112.1764-.112.392-.0504.392-.112.392-.112.1764-.112.392-.0504.392-.112.392-.112.1764-.112.392-.0504.392-.112.392-.112.252-.112.56c0 .308-.0504.56-.112.56-.0655 0-.112.3755-.112.9027 0 .5732-.0409.8773-.112.8333-.0714-.0442-.112.2976-.112.9453 0 .6017-.0456 1.0147-.112 1.0147-.0633 0-.112.3172-.112.728s-.0487.728-.112.728c-.0616 0-.112.1543-.112.3427 0 .1997-.0468.3136-.112.2733-.0638-.0395-.112.0571-.112.224s.0482.2635.112.224c.0616-.0381.112-.0146.112.0524 0 .1596.966 1.1236 1.1259 1.1236.068 0 .3172.2016.5541.448.2369.2464.499.448.5824.448.0837 0 .2248.1008.3136.224.0888.1232.24.224.336.224.096 0 .2472.1008.336.224.0888.1232.24.224.336.224.096 0 .2472.1008.336.224.0949.1316.2898.224.4726.224.1714 0 .3114.0504.3114.112s.0756.112.168.112c.0924 0 .168.0504.168.112s.1291.112.2867.112c.1624 0 .2565.0484.2173.112-.0381.0616.0344.112.1613.112.1268 0 .2307.0504.2307.112s.1008.112.224.112.224.0504.224.112.1764.112.392.112.392.0504.392.112.1008.112.224.112.224.0504.224.112.1543.112.3427.112c.1997 0 .3136.0468.2733.112-.0403.0652.0736.112.2733.112.1884 0 .3427.0504.3427.112s.2047.112.4547.112c.2744 0 .427.0442.3853.112-.0426.0692.1481.112.4973.112.3116 0 .5667.0504.5667.112s.252.112.56.112c.3226 0 .56.0507.56.1196 0 .0792.362.1078 1.0654.084.8179-.0272 1.0531-.0031 1.0116.1044-.0296.077-.0053.14.0546.14.0597 0 .1084-.1291.1084-.2867 0-.1624-.0484-.2565-.112-.2173-.0666.0412-.112-.0921-.112-.3293 0-.2192-.0504-.3987-.112-.3987s-.112-.079-.112-.1753c0-.0963-.1512-.3024-.336-.4578-.1848-.1557-.336-.3539-.336-.441 0-.0868-.0711-.1579-.1579-.1579-.0871 0-.2853-.1512-.441-.336-.1554-.1848-.3304-.336-.3889-.336-.0583 0-.2882-.2016-.5108-.448-.2226-.2464-.483-.448-.5784-.448-.0955 0-.2848-.1134-.4203-.252-.1358-.1386-.4357-.348-.6667-.4656-.231-.1176-.42-.2562-.42-.308 0-.0518-.1008-.0944-.224-.0944s-.224-.0504-.224-.112-.1008-.112-.224-.112-.224-.0504-.224-.112.068-.112.1512-.112c.2612 0 .8568.2414.8568.3469 0 .0557.126.1011.28.1011.154 0 .28.0504.28.112s.1008.112.224.112.224.0504.224.112.0896.112.1994.112c.1094 0 .2718.1008.3606.224.0888.1232.2764.224.4166.224.1406 0 .2554.0504.2554.112s.0644.112.1434.112c.0786 0 .2158.1008.3046.224.0888.1232.2512.224.3606.224.1098 0 .1994.0504.1994.112s.0756.112.168.112c.0924 0 .168.0504.168.112s.0882.1128.196.1137c.1674.0014.1716.0176.028.1103-.1434.0927-.1389.1089.0297.1103.3063.0025.9755.483.9769.7017.0008.1086.0857.196.1901.196.2341 0 1.8273 1.6072 1.8273 1.8435 0 .0949.0535.1725.1187.1725.0653 0 .0874-.0504.0493-.112-.0445-.072.3536-.112 1.1133-.112.7137 0 1.1827-.0445 1.1827-.112 0-.0616.2803-.112.6227-.112.3864 0 .5961-.0426.5533-.112-.0426-.0692.1481-.112.4973-.112.5297 0 .5667-.0182.5667-.28 0-.154-.0504-.28-.112-.28s-.112-.0675-.112-.1504c0-.0826-.2016-.5572-.448-1.0544-.2464-.4976-.448-.9492-.448-1.0036 0-.1671-.275-.7019-.3615-.7028-.1002-.0011-.5345-.8834-.5345-1.0858 0-.0809-.0504-.147-.112-.147s-.112-.0756-.112-.168c0-.0924-.0426-.168-.0944-.168-.052 0-.2111-.2268-.3536-.504-.1425-.2772-.3016-.504-.3536-.504-.0518 0-.0944-.1008-.0944-.224s-.0504-.224-.112-.224-.112-.054-.112-.1198-.145-.3307-.3226-.5886c-.1772-.2579-.4244-.6504-.5493-.8728-.1249-.2223-.2949-.5244-.3775-.6714-.0828-.147-.1758-.2926-.2066-.3234-.1338-.1338-.336-.5709-.336-.7266 0-.0932-.0504-.1694-.112-.1694s-.112-.126-.112-.28c0-.154-.0504-.28-.112-.28s-.112-.1008-.112-.224-.0504-.224-.112-.224-.112-.1543-.112-.3427c0-.1997-.0468-.3136-.112-.2733-.0633.0392-.112-.0526-.112-.2108 0-.154-.0504-.3111-.112-.3492-.0616-.0381-.112-.2932-.112-.5667 0-.2736-.0504-.4973-.112-.4973-.0669 0-.112-.4315-.112-1.0707 0-.6852-.0403-1.0455-.112-1.0013-.0638.0395-.112-.0571-.112-.224s.0482-.2635.112-.224c.0708.0437.112-.2416.112-.7773 0-.4897.0473-.8467.112-.8467.0616 0 .112-.1534.112-.341 0-.3383-.4161-.891-.6706-.891-.3049 0-1.1214-1.059-1.1214-1.4546 0-.1758-.0739-.2254-.336-.2254-.2988 0-.336.0372-.336.336 0 .1848-.0504.336-.112.336s-.112.1733-.112.3853c0 .2119-.0504.4166-.112.4547-.0616.0381-.112.2932-.112.5667 0 .2736-.0504.4973-.112.4973-.0686 0-.112.5412-.112 1.4 0 .8588.0434 1.4.112 1.4.0633 0 .112.3172.112.728s.0487.728.112.728c.0616 0 .112.2268.112.504s.0504.504.112.504.112.1512.112.336c0 .1848-.0504.336-.112.336s-.112-.126-.112-.28c0-.154-.0504-.28-.112-.28s-.112-.1512-.112-.336c0-.1848-.0504-.336-.112-.336s-.112-.2016-.112-.448-.0504-.448-.112-.448c-.0647 0-.112-.357-.112-.8467 0-.5357-.0412-.821-.112-.7773-.0722.0445-.112-.3909-.112-1.2253 0-.7885.0437-1.2947.112-1.2947.063 0 .112-.315.112-.7213 0-.3967.0504-.7526.112-.7907.0616-.0381.112-.1924.112-.3427 0-.1504.0504-.2733.112-.2733s.112-.1316.112-.2929c0-.2847.4197-1.1816.588-1.2563.0462-.0208.084-.1342.084-.252 0-.1182.0504-.2148.112-.2148s.112-.0756.112-.168c0-.0924.0468-.168.1039-.168.0571 0 .1279-.0882.1576-.196.0297-.1078.028.0118-.0039.266-.0347.278-.0084.4925.0664.5384.0683.0423.124.3008.124.5743 0 .2736.0504.4973.112.4973s.112.1512.112.336c0 .1848.042.336.093.336.0512 0 .1646.1386.252.308.2562.4962 1.3319 1.484 1.6164 1.484.0916 0 .1666.0504.1666.112s.0756.112.168.112c.0924 0 .168.0504.168.112s.1795.112.3987.112c.2372 0 .3705.0454.3293.112-.0423.0686.1316.112.448.112s.4903.0434.448.112c-.044.0714.2789.112.8893.112.5645 0 .9587.0459.9587.112 0 .0675.4668.112 1.176.112.7092 0 1.176.0445 1.176.112 0 .0616.1974.112.4385.112.3797 0 .4586.0451.5874.336.0818.1848.1868.336.2335.336.0465 0 .0846.0734.0846.163 0 .2111.5219.733.733.733.0896 0 .163.0504.163.112s.1291.112.2867.112c.1624 0 .2565.0484.2173.112-.0417.0678.1109.112.3853.112.25 0 .4547-.0504.4547-.112s.1257-.112.2792-.112c.6266 0 .9643-.5317.5888-.9274-.1386-.1458-.3329-.3626-.432-.481-.2252-.2699-.6356-.6065-.7454-.6112-.0454-.002-.1834-.081-.3066-.1753-.2131-.1635-.2075-.168.112-.0913.1848.0445.3612.1114.392.149.0308.0375.2954.189.588.3362.2926.1476.532.3117.532.3649 0 .0535.126.1543.28.2245.154.07.28.1896.28.2655 0 .0761.0798.1688.1772.2061.273.1047.6068.0806.6068-.044 0-.0616.0521-.112.1156-.112.3484 0 .8924-.7829.8924-1.2844 0-.3584.0658-.5734.224-.7316.1232-.1232.224-.3248.224-.448 0-.1232.0504-.224.112-.224s.112-.1764.112-.392-.0504-.392-.112-.392-.112-.0924-.112-.2055c0-.2862-.6121-.8025-.9512-.8025-.1542 0-.2808-.0504-.2808-.112s-.0703-.112-.1562-.112c-.1694 0-.5133-.3144-1.3037-1.1931-.2795-.3102-.5617-.5846-.6272-.6095-.1213-.046-1.3166-1.0682-1.7887-1.5294-.1419-.1386-.3164-.252-.3875-.252-.0714 0-.3704-.2016-.6647-.448-.2943-.2464-.5824-.448-.6401-.448-.1708 0-.5919-.5029-.5919-.7073 0-.1039-.0504-.1887-.112-.1887s-.112-.0661-.112-.147c0-.0806-.1008-.2551-.224-.3872-.1232-.1322-.224-.3139-.224-.4038 0-.0899-.063-.1859-.14-.2134-.077-.0274-.1-.0926-.051-.145.049-.0524.1871-.0342.3066.0406.1196.0748.3411.1358.4923.1358s.306.0504.3441.112c.0381.0616.3184.112.6227.112.3044 0 .5533.0504.5533.112 0 .2576 1.09.1263 1.1614-.14.1062-.3959.091-.42-.2654-.42-.1848 0-.336-.0504-.336-.112S63.9264 36 63.8365 36c-.1921 0-1.4045-.884-1.4045-1.0242 0-.0527-.0756-.0958-.168-.0958-.0924 0-.168-.0468-.168-.1039 0-.0574.0756-.1797.168-.2721.0924-.0924.168-.2414.168-.331 0-.0896.2016-.345.448-.5676.2464-.2226.448-.4704.448-.5507 0-.1501 1.0844-1.561 1.251-1.6279.0513-.0208.093-.0832.093-.1389 0-.1554 1.0178-1.4585 1.1911-1.5252.084-.0322.1529-.1361.1529-.2304 0-.0947.1512-.3164.336-.4931.1848-.1767.336-.3889.336-.4718 0-.0832.1453-.2716.3231-.4192.2557-.2122.6849-.9506.6849-1.1779 0-.1526-.3044.0193-.6681.3777ZM47.592 36.56c.0403.0652-.0736.112-.2733.112-.1884 0-.3427-.0504-.3427-.112s.1229-.112.2733-.112c.1503 0 .3046.0504.3427.112Zm2.576.112c-.1114.1232-.2831.2229-.3814.2215-.1299-.0017-.1024-.0622.1014-.2215.3654-.2859.5387-.2859.28 0Zm10.0912 1.7248c.5043.5043.5009.7392-.0112.7392-.2156 0-.392-.0448-.392-.1 0-.0548-.1204-.1299-.2677-.1668-.2052-.0516-.2783-.1585-.3136-.4604-.0649-.5563.434-.5625.9845-.012ZM38.688 50.772c0 .0999-.2635.236-.4572.236-.1829 0-.109-.2061.0932-.2587.3226-.0843.364-.0818.364.0227ZM52.8 52.464c0 .1232-.0504.224-.112.224s-.112-.1008-.112-.224.0504-.224.112-.224.112.1008.112.224Zm.224.6174c0 .0932.0582.2822.1294.42.2928.5664.3315.667.278.7207-.063.0627-.6314-1.0127-.6314-1.1945 0-.0635.0504-.1156.112-.1156s.112.0762.112.1694Zm-5.04 5.3746c.1137.1369.1075.168-.033.168-.2798 0-.5306-.1277-.4637-.2358.0946-.1531.3413-.1195.4967.0678Zm.672.28c0 .0616-.0756.112-.168.112-.0924 0-.168-.0504-.168-.112s.0756-.112.168-.112c.0924 0 .168.0504.168.112Z"/>
    <path fill="#EE6938" d="M56.9068.682761c-.0412.04088-.0748 3.899559-.0748 8.574439 0 6.3966-.0319 8.4804-.1294 8.4202-.0826-.0513-.0988-.0306-.0445.0568.0465.0753.2433.1285.4371.1182.7848-.0423 1.7629.0089 1.713.0896-.0291.047.0686.143.2176.2133.1487.0703.2422.0821.2078.0263-.0345-.056.1668-.1016.4477-.1016.3701 0 .5107.0445.5107.1613 0 .0887.0582.1974.1294.2413.08.0496.0988.0308.0492-.0492-.0537-.0874.0339-.1294.2694-.1294.2044 0 .3206.0465.28.112-.0428.0694.1669.112.5533.112.3424 0 .6227.0504.6227.112s.1512.112.336.112c.1848 0 .336.0504.336.112s.1512.112.336.112c.1848 0 .336.0504.336.112s.1201.112.2671.112c.3187 0 .8803.2713.7765.3749-.0401.0403.0767.0731.2595.0731.3553 0 .9347.2251.9361.364.0005.0462.0663.084.1464.084.2061 0 .7484.2635.7496.364.0005.0462.105.084.2324.084.1806 0 .2158.0493.1604.224-.0423.1336-.0202.224.0552.224.0691 0 .0949-.0504.0568-.112-.1305-.2111.481-.023.728.224.0605.0605.46.294.8758.5118.1787.0936.2137.1549.112.1955-.0812.0325-.0039.063.1722.0677.2333.0065.303.0535.2568.1734-.0347.0904-.007.199.0613.2413.0753.0465.093.0258.0445-.0523-.0473-.0768-.0086-.1294.0947-.1294.096 0 .1747.042.1747.093 0 .0512.126.1607.2797.243.154.0823.2573.1725.2293.2002-.0725.0725.2352.3598.3856.3598.0697 0 .0935-.0538.0526-.1196-.0406-.0655-.0056-.11.0776-.0985.3455.0473.5432-.016.5432-.1739 0-.0924.0426-.168.0949-.168.1327 0 .5964-.4141.5704-.5096-.0118-.0431 2.2436-2.3528 5.012-5.1324 2.7683-2.7798 5.1245-5.18 5.236-5.334.1123-.1554.1727-.1926.1361-.084-.0364.1078-.0177.196.0422.196.0597 0 .1084-.126.1084-.28 0-.154-.0504-.28-.112-.28s-.112-.0571-.112-.1268c0-.1328-.2492-.3724-.6829-.6572-.1409-.0924-.3626-.2688-.4928-.392-.1302-.1232-.4228-.35-.6499-.504-.2271-.154-.4133-.3178-.4136-.364-.0005-.0462-.0719-.084-.1587-.084-.0871 0-.2853-.1512-.441-.336-.1554-.1848-.3649-.336-.4654-.336-.1319 0-.1629-.06244-.1117-.224.0605-.19068.0202-.224-.2724-.224-.2246 0-.3436-.056-.3436-.16128 0-.08876-.0582-.1974-.1294-.24136-.08-.04956-.0988-.0308-.0492.04928.0439.07112.0266.12936-.0387.12936-.0652 0-.1187-.04844-.1187-.10752 0-.18172-.4777-.56448-.7042-.56448-.1176 0-.355-.1512-.5278-.336-.1728-.1848-.3945-.336-.4928-.336-.0986 0-.1792-.03836-.1792-.08512s-.1061-.1512-.2358-.23212c-.1296-.08092-.2021-.09324-.1612-.02716.0411.06692-.0065.1204-.107.1204-.0997 0-.1501-.0504-.112-.112.0381-.0616-.0344-.112-.1613-.112-.1268 0-.2307-.0504-.2307-.112s-.1008-.112-.224-.112-.224-.0504-.224-.112-.1061-.112-.236-.112c-.1613 0-.2159-.0518-.1728-.16436.0347-.09044.007-.19908-.0613-.24136-.0753-.04648-.093-.02576-.0445.05236.1215.19656-.1938.15652-.6788-.08624-.2368-.11844-.5908-.28028-.7865-.3598-.1957-.07924-.3315-.18396-.3015-.2324.0302-.04844-.0499-.0882-.1776-.0882-.1276 0-.3194-.04844-.4264-.1078-.4385-.24332-1.1981-.5642-1.3356-.5642-.0809 0-.147-.0504-.147-.112s-.126-.112-.28-.112c-.154 0-.28-.0504-.28-.112s-.1481-.112-.3293-.112c-.1811 0-.3606-.0504-.3987-.112-.0381-.0616-.2145-.112-.392-.112-.1775 0-.3539-.0504-.392-.112-.0381-.0616-.1893-.112-.336-.112-.1467 0-.2979-.0504-.336-.112-.0381-.0616-.2145-.112-.392-.112-.1775 0-.3539-.0504-.392-.112-.0381-.0616-.1924-.112-.3427-.112-.1504 0-.2733-.0504-.2733-.112s-.1543-.112-.3427-.112c-.1997 0-.3136-.04676-.2733-.112.0431-.07-.1856-.112-.6093-.112-.3777 0-.6787-.04956-.6787-.112 0-.0616-.252-.112-.56-.112-.413 0-.56-.04228-.56-.16128 0-.08876-.0498-.19236-.1106-.22988-.061-.0378-.0854-.00252-.0546.0784.0426.11088-.0666.13692-.4488.1064-.2781-.02212-.4772-.0854-.443-.14084.0353-.05712-.4029-.1008-1.0083-.1008-.6392 0-1.0707-.04508-1.0707-.111999 0-.06832-.5558-.11508-1.428-.11984-.9022-.00504-1.3454-.0434-1.204-.10416.1646-.07084.177-.09828.0468-.10416-.0978-.0042-.2112.02576-.252.06692Zm-4.8348.28028c-.3696.049279-1.176.139439-1.792.200199-.616.06104-1.3216.16716-1.568.23604-.429.11956-.9772.22176-2.072.38584-.2772.04172-.6552.1414-.84.22176-.1848.08008-.5628.1792-.84.2198-.2772.04088-.6048.11704-.728.16968-.1232.05292-.602.20832-1.064.34552-.462.13748-.9912.3122-1.176.38864-.1848.07644-.5376.20188-.784.2786-.2464.077-.574.20272-.728.27972-.154.07672-.5824.25648-.952.399-.3696.14252-.7386.32508-.8201.40572-.0812.08036-.1997.14644-.2629.14644-.163 0-1.9654.87584-2.501 1.2152-.2464.15596-.672.40404-.9458.55076-.2742.147-.6432.3892-.8207.53844-.1775.14952-.3741.2716-.4368.2716-.0627 0-.2722.1134-.4651.252-.1929.1386-.4343.3024-.5359.364-.3797.2296-1.5095 1.04804-1.7797 1.28884-.154.1372-.4564.36428-.672.50456-.2156.14028-.6692.525-1.008.8551-.3388.3301-.7602.7123-.9366.8498-.2436.1899-.3049.3122-.2556.5093.0772.3072 2.2153 2.4985 2.5376 2.601.1224.0386.2226.1386.2226.2217 0 .1215 3.719 3.9393 4.5475 4.6687.117.1028.6289.6068 1.1376 1.12 1.1088 1.1181 1.2155 1.213 1.3661 1.213.0642 0 .1168.0697.1168.1551 0 .1616 1.0396 1.2477 1.3597 1.4205.1372.0739.3777-.0471.952-.4788.9999-.7521 3.0425-2.0502 3.4003-2.1608.154-.0479.4001-.1806.5471-.2954.147-.1148.357-.2086.4668-.2086.1097 0 .2161-.0378.2369-.084.0702-.1585.8733-.4704 1.0432-.4052.1098.042.17-.0005.17-.1198 0-.1515.0762-.1725.42-.1156.3125.0515.3769.0389.252-.0493-.1464-.1033-.1442-.119.0176-.1204.1022-.0009.4298-.1243.728-.2739.6006-.3015 1.6705-.5546 1.857-.4393.0711.044.0874.0213.04-.0551-.0537-.0874.0406-.1322.2907-.1381.4091-.0092.4371-.0148 1.3303-.2567.3427-.093 1.0819-.1848 1.6424-.2039.5603-.019.9988-.0549.9742-.0795-.0247-.0249.0352-.1036.133-.175.1551-.1134.2808-16.44608.1274-16.586359-.0941-.08624-1.3648-.1064-1.9326-.0308ZM56.634 4.976c0 .2156.023.3038.0513.196.028-.1078.028-.2842 0-.392-.0283-.1078-.0513-.0196-.0513.196Zm0 1.344c0 .2156.023.3038.0513.196.028-.1078.028-.2842 0-.392-.0283-.1078-.0513-.0196-.0513.196Zm16.4946 14.4474c-.1118.1235-.1666.2246-.1218.2246.1178 0 .437-.3374.3766-.3979-.0283-.0283-.1428.0496-.2548.1733Z"/>
    <path fill="#C7DC6A" d="M51.1788.715246c-.0395.0644-.4441.11676-.8988.11676-.4547 0-.8579.0504-.896.112-.0381.061604-.3587.112004-.7123.112004-.3537 0-.6908.0476-.7493.10556-.0585.05824-.3738.1176-.7003.13244-.3267.01456-.6193.06776-.6507.11816-.0311.05068-.1949.09184-.3637.09184-.1689 0-.3604.05348-.4259.119s-.2772.12348-.4704.12908c-.1932.0056-.3514.05264-.3514.105 0 .05208-.2016.09492-.448.09492s-.448.0504-.448.112-.1481.112-.3293.112c-.1811 0-.3606.0504-.3987.112-.0381.0616-.1677.112-.2881.112-.1204 0-.3063.04452-.4133.09884-.107.0546-.3458.16128-.5306.23716-.1848.07588-.4236.18256-.5306.23716-.107.05432-.3181.09884-.4693.09884s-.306.0504-.3441.112c-.0381.0616-.1672.112-.2867.112-.1196 0-.2173.0504-.2173.112s-.0977.112-.2173.112c-.1195 0-.2486.0504-.2867.112-.0381.0616-.1924.112-.3427.112-.1504 0-.2736.0378-.2741.084-.0012.09828-.5416.364-.7401.364-.075 0-.1531.0378-.1739.084-.0537.12096-.9814.588-1.1678.588-.0866 0-.1577.0378-.1582.084-.0012.10052-.5435.364-.7496.364-.0801 0-.1456.0504-.1456.112s-.054.112-.1198.112-.3397.1512-.6082.336c-.2685.1848-.5676.336-.6642.336-.0966 0-.1758.0504-.1758.112s-.0661.112-.147.112c-.0806 0-.2551.1008-.3872.224-.1322.1232-.2876.224-.3453.224-.0577 0-.2665.1512-.4645.336-.198.1848-.4301.336-.5158.336-.0859 0-.1562.0504-.1562.112s-.063.112-.14.112c-.077.00028-.2912.13048-.476.2898-.1848.15932-.4746.37184-.644.47208s-.308.22204-.308.2702c0 .04844-.0644.08792-.1434.08792-.0786 0-.318.16968-.532.37744-.2136.20748-.6406.56868-.9486.80215-.308.2338-.6415.5178-.7412.6309-.0996.1131-.2324.2055-.2951.2055-.7182 0-.5356 1.4666.2621 2.1031.2103.1677.3822.3679.3822.4449 0 .077.0535.14.1193.14.1786 0 .427.2386 5.4507 5.236 2.9896 2.9736 4.7304 4.6262 4.8855 4.6374.495.0358.8072-.0395 1.0318-.2492.1271-.119.2783-.2165.336-.2168.0577-.0002.2573-.1388.4438-.308.4849-.4396 1.2589-1.0354 1.3451-1.0354.0403 0 .2156-.1014.3898-.2254.1738-.1238.5849-.3682.913-.5426.3285-.1745.7874-.4259 1.0204-.5586.2329-.1328.5227-.2414.644-.2414.1212 0 .2206-.0445.2206-.0988 0-.0546.1126-.1286.25-.1644.1801-.047.2159-.0997.1286-.187-.1213-.1213-.9453.171-1.0318.3662-.0208.0462-.1272.084-.2369.084-.1098 0-.3198.0938-.4668.2086-.147.1148-.3931.2475-.5471.2954-.3578.1106-2.4004 1.4087-3.4003 2.1608-.5743.4317-.8148.5527-.952.4788-.3201-.1728-1.3597-1.2589-1.3597-1.4205 0-.0854-.0526-.1551-.1168-.1551-.1506 0-.2573-.0949-1.3661-1.213-.5087-.5132-1.0206-1.0172-1.1376-1.12-.8285-.7294-4.5475-4.5472-4.5475-4.6687 0-.0831-.1002-.1831-.2226-.2217-.3223-.1025-2.4604-2.2938-2.5376-2.601-.0493-.1971.012-.3194.2556-.5093.1764-.1375.5978-.5197.9366-.8498.3388-.3301.7924-.71481 1.008-.85509.2156-.14028.518-.36736.672-.50456.2702-.2408 1.4-1.05924 1.7797-1.28884.1016-.0616.343-.2254.5359-.364.1929-.1386.4024-.252.4651-.252.0627 0 .2593-.12208.4368-.2716.1775-.14924.5465-.39144.8207-.53844.2738-.14672.6994-.3948.9458-.55076.5356-.33936 2.338-1.2152 2.501-1.2152.0632 0 .1817-.06608.2629-.14644.0815-.08064.4505-.2632.8201-.40572.3696-.14252.798-.32228.952-.399.154-.077.4816-.20272.728-.27972.2464-.07672.5992-.20216.784-.2786.1848-.07644.714-.25116 1.176-.38864.462-.1372.9408-.2926 1.064-.34552.1232-.05264.4508-.1288.728-.16968.2772-.0406.6552-.13972.84-.2198.1848-.08036.5628-.18004.84-.22176 1.0315-.15456 1.6433-.26796 2.352-.43624.4004-.0952 1.0396-.17472 1.4207-.17696.3811-.00224.8347-.05796 1.008-.12404.3161-.120404 2.4495-.190964 2.5559-.084564.1792.178924.073 16.490874-.1078 16.623074-.24.1752-.0793.2716.2472.1481.1425-.0538.252-.1901.252-.3136 0-.1201.063-.2411.14-.2688.112-.0406.112-.0983 0-.2879-.1683-.285-.1837-.7602-.0277-.8565.1358-.0837.1265-13.71577-.0093-13.89105-.0492-.06328-.1005-.42392-.1142-.80108l-.0246-.685724-1.5406-.01568c-.964-.00952-1.5677.02828-1.6128.10108Zm5.9332.00476c-.1417.06076.2909.09856 1.176.10248.9428.0042 1.3451-.0294 1.232-.10248-.2058-.133-2.0983-.133-2.408 0Zm2.632.22204c0 .135804.7773.150364.9856.0182.089-.05656-.0736-.09996-.42-.11228-.3223-.01148-.5656.02912-.5656.09408Zm2.0826.208604c-.0369.05992.1554.1246.438.147.3052.02408.4894-.00448.467-.0728-.0487-.14868-.8198-.21196-.905-.0742Zm-5.1363.26936c-.1106.51688-.0848 16.04289.0272 16.21199.0739.112.1117-2.6102.1128-8.14799.0009-4.5738-.0179-8.316-.0423-8.316-.024 0-.068.1134-.0977.252Zm6.1897-.028c0 .0616.1481.112.3293.112.1811 0 .3606-.0504.3987-.112.0412-.06664-.0921-.112-.3293-.112-.2192 0-.3987.0504-.3987.112Zm1.12.2268c0 .06384.1935.10108.4371.084.2405-.01708.4138-.0686.3855-.1148-.0789-.12796-.8226-.10024-.8226.0308Zm1.904.4452c0 .0616.1229.112.2733.112.1503 0 .3046.0504.3427.112.0381.0616.2145.112.392.112.1775 0 .3539.0504.392.112.0381.0616.1893.112.336.112.1467 0 .2979.0504.336.112.0381.0616.2145.112.392.112.1775 0 .3539.0504.392.112.0381.0616.1672.112.2867.112.1196 0 .2173-.0504.2173-.112s-.0977-.112-.2173-.112c-.1195 0-.2486-.0504-.2867-.112-.0381-.0616-.2145-.112-.392-.112-.1775 0-.3539-.0504-.392-.112-.0381-.0616-.1893-.112-.336-.112-.1467 0-.2979-.0504-.336-.112-.0381-.0616-.2145-.112-.392-.112-.1775 0-.3539-.0504-.392-.112-.0381-.0616-.1924-.112-.3427-.112-.1504 0-.2733.0504-.2733.112Zm3.584 1.12c0 .0616.1039.112.2307.112.1269 0 .1994-.0504.1613-.112-.0381-.0616-.142-.112-.2307-.112-.0888 0-.1613.0504-.1613.112Zm.56.224c0 .0616.0678.112.1509.112.0829 0 .2971.07.476.15568.9092.43568 1.1685.53396 1.297.49112.077-.02576-.1605-.19264-.5278-.37072-.3674-.17808-.6849-.36344-.7053-.41188-.0549-.12964-.6908-.10752-.6908.0238Zm2.0866.8722c-.03.04844.1058.15316.3015.2324.1957.07952.5497.24136.7865.3598.2369.11872.5015.2156.588.2156.0866 0 .1574.0504.1574.112s.0756.112.168.112c.0924 0 .1672-.0378.166-.084-.0022-.09856-1.0057-.588-1.2054-.588-.075 0-.1369-.0378-.1374-.084-.002-.18788-.7286-.43092-.8246-.2758ZM79.12 8.30885c0 .1428.4928.58716.6513.58716.0731 0 .133.0378.1335.084.0003.0462.1865.21.4136.364.2271.154.5197.3808.6499.504.1302.1232.3519.29959.4928.39199.4337.2848.6829.5244.6829.6572 0 .0697.0504.1268.112.1268.32 0-.7008-1.12447-1.4179-1.56155-.175-.10696-.3873-.27804-.4718-.38024-.0846-.10248-.219-.1862-.2988-.1862-.0795 0-.1615-.03976-.1823-.08792-.0627-.14812-.7652-.6062-.7652-.49924Zm3.024 3.01135c0 .0602-.1033.2204-.2296.3562-.1266.1355-.1943.3041-.1509.3744.0448.0725.0299.0974-.0345.0576-.1394-.0862-1.6195 1.3712-1.5335 1.5101.0336.0543-.0056.0851-.0871.0683-.0818-.0171-.1364.0305-.1218.1053.0165.084-.0442.1086-.1593.0644-.1423-.0546-.1686-.0258-.112.1218.0409.1064.0327.1677-.0179.1363-.1398-.0862-1.6005 1.386-1.514 1.526.0431.07.0235.0902-.0462.0471-.1274-.079-1.3325 1.1231-1.2866 1.2835.0148.051-.0571.0605-.1593.0213-.1403-.0538-.1686-.0255-.1148.1148.0392.1022.0344.1741-.0107.1593-.152-.0493-.7134.467-.6389.5877.0406.0655.0238.1053-.037.0885-.0983-.0272-1.5797 1.3857-3.5423 3.3785-.936.9503-.6949.8495.3187-.1333.4609-.4466.9259-.8658 1.0343-.9316.1081-.0655.2503-.2139.3158-.3292.1532-.2691.5217-.6376.7908-.7908.1153-.0655.2637-.2147.3292-.3312.1529-.2708.2988-.4152.5724-.5664.1206-.0667.269-.2305.3298-.364.0608-.1336.1632-.2428.2274-.2428.1492 0 1.398-1.2569 1.398-1.407 0-.0622.1487-.2005.3307-.308.1817-.1075.4446-.3576.5843-.5561.3302-.4698.4438-.5818.681-.6717.1078-.0409.196-.1515.196-.2456 0-.0943.0602-.1716.1338-.1716.1694 0 .7622-.5617.7622-.7224 0-.0664.1134-.1702.252-.231.1386-.0608.3018-.224.3626-.3626.0608-.1386.1688-.252.2402-.252.2957 0 1.1707-1.2597.9963-1.4342-.0325-.0324-.0591-.0098-.0591.0504Zm-57.176 2.9792c-.1848.1344-.3819.319-.4376.4102-.056.0913-.2198.2753-.364.4091-.1445.1336-.2624.296-.2624.3609 0 .0647-.0412.1344-.0918.1552-.0504.0204-.3114.3648-.5799.7652-.2688.4004-.5802.8095-.6925.9092-.112.0996-.2038.2634-.2038.364 0 .1005-.0445.1828-.0988.1828-.0546 0-.1272.0882-.1613.196-.0807.2545-.4153.7988-.6639 1.0802-.1078.1221-.196.2882-.196.3688 0 .0809-.0386.147-.0857.147-.047 0-.1725.189-.2786.42-.2055.4469-.6597 1.246-.9707 1.708-.1039.154-.4125.7336-.6858 1.288-.2735.5544-.5353 1.0248-.5821 1.0452-.0467.0208-.0851.1246-.0851.231 0 .1759-.2926.8927-.5642 1.3824-.0594.107-.1089.2582-.1103.336-.0014.0778-.1011.2674-.2215.4214-.1204.154-.2201.394-.2215.5334-.0014.1394-.0529.3536-.1145.476-.0616.1224-.1624.3228-.224.4452-.0616.1224-.112.324-.112.448s-.0504.2254-.112.2254-.112.1481-.112.3293c0 .1811-.0504.3606-.112.3987-.0616.0381-.112.2145-.112.392 0 .1775-.0504.3539-.112.392-.0616.0381-.112.2428-.112.4547 0 .212-.0504.3853-.112.3853s-.112.1985-.112.4413c0 .2427-.0504.4726-.112.5107-.0616.0381-.112.2397-.112.448s-.0504.4099-.112.448c-.0616.0381-.112.2649-.112.504 0 .2391-.0504.4659-.112.504-.0616.0381-.112.3153-.112.616 0 .3007-.0426.5732-.0946.6054-.0521.0319-.1039.3466-.1154.6991-.0118.3525-.0636.6947-.1154.7602-.1867.2366-.1475 1.8251.0524 2.1305l.1868.2848 7.7991-.0036c8.1917-.0037 8.1911-.0037 8.1911-.4847 0-.1011.0504-.1837.112-.1837.0622 0 .112-.2988.112-.672 0-.3732.0498-.672.112-.672.0616 0 .112-.2022.112-.4494 0-.2472.0582-.5622.1294-.7.2788-.5393.3186-.6474.3186-.8652 0-.124.0504-.2254.112-.2254s.112-.1266.112-.2814.0445-.369.0988-.476c.0546-.107.1496-.3206.2112-.4746.2478-.6188 1.764-3.6425 1.844-3.6772.0474-.0208.086-.123.086-.2274 0-.1044.1008-.2626.224-.3514.1232-.0888.224-.2041.224-.2565 0-.1075.6395-1.0643.8644-1.2933.0809-.0823.2842-.3343.4522-.56.1677-.2257.3824-.4858.4774-.5782.3617-.3522.4264-.6997.2044-1.0954-.1935-.3444-1.6938-1.9286-1.8265-1.9286-.0327 0-1.9877-1.9211-4.3439-4.2689-5.7162-5.696-5.3102-5.3631-5.964-4.8877Zm27.328 3.5616c-.4928.0474-1.0976.1437-1.344.2142-.2464.0703-.6244.1532-.84.1846-.9262.1341-1.9986.4219-2.5024.6714-.2982.1478-.6258.2696-.728.2705-.1576.0014-.1607.0173-.0212.1055.0921.0583.215.0619.28.0079.0638-.0529.2671-.1176.4519-.1437.1845-.026.4869-.1134.6717-.194.1848-.0804.5376-.1789.784-.219.2464-.0397.4396-.1204.4292-.1794-.0106-.0605.2249-.0899.543-.0675.3144.0221.616-.0149.6851-.084.0678-.0678.3301-.1235.5827-.1235s.5071-.0479.5656-.1064c.0588-.0588.4847-.1218.9464-.14.4631-.0185.84-.084.84-.1456 0-.1459-.2559-.1557-1.344-.051Zm4.9011.0037c-.2962.105-.0229.1753.7748.1985.411.012.777-.0252.8125-.0829.0728-.1181-1.2989-.2178-1.5873-.1156Zm2.0429.3273c.0381.0616.268.112.5107.112.2428 0 .4413-.0504.4413-.112s-.2299-.112-.5107-.112c-.3117 0-.4836.0437-.4413.112Zm1.12.224c.0381.0616.1641.112.28.112.1159 0 .2419-.0504.28-.112.0406-.0655-.0756-.112-.28-.112-.2044 0-.3206.0465-.28.112Zm1.064.224c0 .0616.1512.112.336.112.1848 0 .336-.0504.336-.112s-.1512-.112-.336-.112c-.1848 0-.336.0504-.336.112Zm.84.224c.0381.0616.1672.112.2867.112.1196 0 .2173-.0504.2173-.112s-.1291-.112-.2867-.112c-.1624 0-.2565.0484-.2173.112Zm.672.224c.0381.0616.1672.112.2867.112.1196 0 .2173-.0504.2173-.112s-.1291-.112-.2867-.112c-.1624 0-.2565.0484-.2173.112Zm.6863.2472c.0302.0488.1739.0888.3189.0888.1453 0 .2839.0594.308.1319.0252.0753.1047.0943.1856.0442.1017-.0627.0602-.1299-.1458-.2369-.3052-.1584-.7588-.1775-.6667-.028Zm-17.4303.154c0 .0978.0599.1574.133.133.2078-.0691.2422-.3102.0442-.3102-.0974 0-.1772.0798-.1772.1772Zm18.536.2708c.0381.0616.1641.112.28.112.1159 0 .2419.0504.28.112.0804.1299.3923.1523.3912.028-.0012-.1151-.5567-.364-.812-.364-.1146 0-.1773.0504-.1392.112Zm1.064.448c0 .0616.1008.112.224.112s.224.0386.224.0857c0 .047.189.1725.42.2786.469.2156 1.2818.6807 1.708.9769.154.1072.3455.1719.4253.1436.1425-.0501-.3735-.4088-.7893-.549-.1078-.0362-.196-.1011-.196-.144 0-.0428-.1764-.1472-.392-.2318-.2156-.0846-.392-.1949-.392-.245 0-.0501-.1008-.091-.224-.091s-.2243-.0378-.2248-.084c-.0009-.0857-.5312-.364-.6936-.364-.0493 0-.0896.0504-.0896.112Zm3.1452 1.7237c.3439.3211 1.1158.8229 1.1587.7532.0311-.0501-.0678-.1577-.2198-.2389-.1518-.0814-.2761-.1898-.2761-.241 0-.051-.0756-.093-.168-.093-.0924 0-.168-.0504-.168-.112s-.084-.112-.1868-.112c-.1024 0-.1654.0196-.14.0437ZM15.196 41.3413c-.1386.0957-.252.2436-.252.3284 0 .0849-.0409.1543-.091.1543-.1056 0-.1056.8971 0 1.0654.0392.0622.0848.6166.1011 1.232.0165.6152.0675 1.1444.1134 1.176.0459.0314.098.4508.1159.9321.0179.4813.0722.8994.1207.9293.0484.03.0879.3036.0879.6079 0 .3044.0451.5533.1002.5533.0944 0 .1277.1453.301 1.3168.0387.2621.1154.5046.1706.5385.0551.0341.1002.2576.1002.4967 0 .2391.0504.4659.112.504.0616.0381.112.2145.112.392 0 .1775.0504.3539.112.392.0616.0381.112.2145.112.392 0 .1775.0504.3539.112.392.0616.0381.112.1677.112.2881 0 .1204.0582.3315.1294.4693.2721.5261.3186.6446.3186.8106 0 .0941.0445.2584.0988.3654.112.2204.3388.7563.4612 1.0906.0451.1232.1459.3752.224.56.0781.1848.1795.4368.2257.56.0459.1232.2915.6524.5457 1.176.2545.5236.462 1.015.4614 1.092-.0005.077.0496.14.1112.14.0616 0 .112.1008.112.224s.0504.224.112.224.112.0661.112.147c0 .0806.0896.2444.1991.364.1097.1193.3377.5015.5068.8495.1688.3478.3816.6941.4726.7697.091.0754.1655.1972.1655.2705 0 .0731.0882.2307.196.3503.1078.1193.2674.3556.355.525.0874.1694.2008.308.252.308.051 0 .093.0955.093.212 0 .1167.0717.2396.1596.2732.0876.0336.2447.2408.3486.4601.1042.2192.2341.3987.2887.3987.0546 0 .0991.0498.0991.1112 0 .0971.4841.7904.9593 1.3742.0885.1084.1615.2344.1627.28.003.1184.5502.8005.9858 1.2289.529.5197.9977.5043 1.4952-.0498.205-.2285.5368-.5779.737-.7765.2002-.1985.364-.3931.364-.4326 0-.0929.2988-.3914.3917-.3914.0613 0 1.367-1.2701 5.3321-5.187.4247-.4194.7722-.8044.7722-.8551 0-.0507.1134-.1689.252-.2627 1.2328-.8346 2.0964-2.0764 1.7662-2.5398-.1243-.175-.2262-.3733-.2262-.4408 0-.0674-.0504-.1226-.112-.1226s-.112-.063-.1123-.14c0-.077-.1447-.3091-.3217-.516-.1767-.2067-.4197-.5595-.5401-.784-.3341-.623-.5317-.9624-.597-1.024-.1464-.1392-1.2303-2.4284-1.2297-2.5973.0005-.1041-.0496-.2206-.1112-.2587-.0616-.0381-.112-.1893-.112-.336 0-.1467-.0504-.2979-.112-.336-.0616-.0381-.112-.1893-.112-.336 0-.1467-.0504-.2979-.112-.336-.0616-.0381-.112-.2176-.112-.3987 0-.1812-.0504-.3293-.112-.3293s-.112-.1481-.112-.3293c0-.1811-.0504-.3606-.112-.3987-.0616-.0381-.112-.2579-.112-.4883 0-.2305-.0476-.4668-.1056-.5253-.0579-.0585-.1167-.4236-.1304-.8112-.0138-.3878-.0672-.731-.1185-.7627-.0515-.0316-.0935-.2313-.0935-.4432 0-.2327-.0554-.3859-.14-.387-.0935-.0011-.0846-.0369.0272-.1072.133-.0843.1386-.1341.028-.2447-.0958-.0958-.1392-.5712-.1392-1.5274 0-1.2262-.0272-1.4266-.2327-1.715l-.2327-.3268-7.5793.009c-6.6609.0081-7.6098.0302-7.8313.1831Z"/>
    <path fill="#6DD3F1" d="M36.7364 61.1381c-.6513.6438-1.1844 1.2029-1.1844 1.243 0 .04-.2624.3071-.5832.5938-.3209.2868-.9131.8683-1.316 1.2931-.403.4245-.8493.8781-.9915 1.008-1.0864.9909-3.2477 3.26-3.192 3.3507.0381.0616.0165.0793-.0482.0392-.0647-.04-.1464.0028-.182.0947-.0353.0921-.1204.1674-.1893.1674-.3332 0-1.3378 1.2597-1.3378 1.6778 0 .4438.2629.7862.6034.7862.1067 0 .1627.0504.1246.112-.0381.0616-.016.112.0493.112.0652 0 .1187.0753.1187.1672 0 .0921.3024.4746.672.8498.3696.3755.672.7316.672.7915 0 .0597.0582.0728.1294.0289.0711-.044.0996-.0319.0632.0266-.0361.0588-.031.1548.0118.2133.1378.1893.7305.6715.6465.5259-.0644-.1117-.0215-.1137.2061-.0101.3066.1397.3679.2733.1579.3433-.1338.0445.3962.6476.5693.6476.0518 0 .1778.1277.28.2839.1022.156.99 1.0859 1.9728 2.0664.9828.9803 1.787 1.8142 1.787 1.8528 0 .1193.6476.7249.7753.7249.0664 0 .1207.0739.1207.1641s.1008.2181.224.2839.224.1633.224.2162.504.6011 1.12 1.218c.616.6168 1.12 1.1561 1.12 1.1987 0 .0422.252.3035.56.5804.308.2769.56.5527.56.6132 0 .1378.1932.3315.588.59.1694.1106.308.2525.308.3152 0 .0628.0885.1955.1968.2952.1081.0996.2632.3113.3447.4701.0815.159.2954.376.4752.4824.18.1064.3273.2445.3273.3069 0 .1534.2895.4337.448.4337.1854 0 .448.2909.448.4959 0 .0969.0504.1761.112.1761s.112.065.112.1442c0 .0793.4651.6211 1.0338 1.204.5686.583 1.0234 1.094 1.0105 1.136-.0126.042.3788.4816.8702.9769.4914.4953.8935.945.8935.9996 0 .0543.4032.5135.896 1.0203.4928.5071.896.9702.896 1.0296 0 .1369.4253.5642.8179.8212.166.1089.3021.245.3021.3024 0 .0577.3528.4561.784.8857.4312.4292.7854.8176.7871.8624.0047.1324.7355.8803.9343.9567.1006.0384.1826.1473.1826.2414 0 .0943.0445.1716.0988.1716.0546 0 .1272.107.1613.238.0515.1974.1157.2246.3769.1599.4306-.1064.5799-.2682.3702-.401-.1182-.0744-.1249-.1061-.023-.1072.1988-.0023.1837-31.2172-.0154-31.4672-.1033-.1297-.0958-.1431.0392-.0681.1232.0683.1176.0395-.0216-.1081-.1041-.1108-.3536-.2195-.5544-.2413-.2004-.0221-.3925-.0798-.4264-.1285-.068-.098-.1221-.1022-1.5803-.1202-.5581-.0067-.9898-.0523-.9596-.101.03-.0488-.0543-.0969-.1876-.107-.1333-.0101-.3598-.0812-.5034-.1582-.2156-.1154-.2792-.1114-.3643.023-.0566.0896-.1042.1125-.1056.0509-.0033-.1473-.5381-.392-.8565-.392-.138 0-.2822-.0504-.3203-.112-.0381-.0616-.2176-.112-.3987-.112-.1812 0-.3293-.0504-.3293-.112s-.1512-.112-.336-.112c-.1848 0-.336-.0504-.336-.112s-.1229-.112-.2733-.112c-.1503 0-.3046-.0504-.3427-.112-.0381-.0616-.1672-.112-.2867-.112-.1196 0-.2173-.0504-.2173-.112s-.0924-.112-.2052-.112c-.1132 0-.2403-.035-.2831-.0775-.0426-.0426-.1896-.0947-.3265-.1154-.1372-.0207-.266-.0865-.2864-.1464-.0208-.0597-.1342-.1087-.252-.1087-.1182 0-.2151-.0378-.2156-.084-.0006-.0462-.114-.1403-.252-.2094-.7756-.387-1.0016-.5306-1.0554-.6709-.033-.0857-.1472-.1557-.2545-.1557-.1069 0-.2859-.1008-.3973-.224s-.2705-.224-.3534-.224c-.0828 0-.1506-.0381-.1506-.0845 0-.1017-.6888-.4254-.8204-.3856-.0507.0151-.0602-.0241-.0213-.0871.0389-.0633-.0075-.1148-.1036-.1148-.096 0-.1747-.0504-.1747-.112s-.063-.1123-.14-.1125c-.077-.0003-.301-.1515-.4978-.336-.1969-.1846-.4055-.3355-.4632-.3355-.0579 0-.1951-.1386-.3049-.308-.7383-1.1393-1.0965-1.0892-2.5617.3581Z"/>
    <path fill="#AB8CF2" d="M60.6008.97116c.0288.04648.31.08484.6244.08484.3147 0 .5342-.0378.488-.084-.1106-.11032-1.1807-.11144-1.1124-.00084Zm3.0072.42084c-.0381.0616.0375.112.168.112s.2061-.0504.168-.112c-.0381-.0616-.1137-.112-.168-.112-.0543 0-.1299.0504-.168.112Zm-9.24.32284c0 .1848.0504.36708.112.40516.0652.04032.112-.0714.112-.26684 0-.1848-.0504-.36708-.112-.40516-.0652-.04032-.112.0714-.112.26684ZM65.4 1.84c-.0381.0616.0344.112.1613.112.1268 0 .2307-.0504.2307-.112s-.0725-.112-.1613-.112c-.0887 0-.1926.0504-.2307.112Zm-8.766 3.808c0 .2156.023.3038.0513.196.028-.1078.028-.2842 0-.392-.0283-.1078-.0513-.0196-.0513.196Zm-2.128.448c0 .2156.023.3038.0513.196.028-.1078.028-.2842 0-.392-.0283-.1078-.0513-.0196-.0513.196Zm24.3124 8.9312c-.1349.1666-.2262.3222-.2027.3458.0482.0481.6163-.4973.6163-.592 0-.145-.1862-.0344-.4136.2462Zm-3.4896 3.4566c-.2041.2307-.0728.3402.1459.1215.0952-.0952.1733-.2022.1733-.2372 0-.1176-.1663-.0574-.3192.1157Zm-1.008 1.0105c-.1448.1543-.236.3077-.2027.341.0605.0605.6339-.4589.6339-.5743 0-.1318-.1803-.0344-.4312.2333Zm-2.0154 2.0179c-.2677.2772-.4688.5217-.4472.5435.0428.0429 1.1018-.9315 1.1018-1.0139 0-.1391-.2153.0154-.6546.4704ZM35.776 23.939c0 .0193.1638.1831.364.364l.364.329-.329-.364c-.3066-.3394-.399-.4155-.399-.329Zm31.36 2.989c-.2772.3013-.5706.5505-.6521.5538-.2053.0084-.4679.2904-.4679.5021 0 .1013-.0949.1761-.224.1761-.1492 0-.224.0748-.224.224 0 .1288-.0748.224-.1756.224-.0966 0-.467.294-.8229.6535-.3561.3595-.7308.6855-.8324.7244-.1697.0652-.2666.3021-.1235.3021.2167 0 .7585-.3998 1.0245-.756.4262-.5704.5564-.7.7025-.7.1174 0 .7093-.5205 1.6873-1.484.6149-.6056.7734-.5872.5035.0591-.1577.3766-.1552.3917.056.3365.1212-.0319.2217-.1148.2231-.1848.0014-.0697.0969-.2497.2123-.3998.208-.2708.1929-.5468-.0387-.7053-.2164-.1481-.3377-.0804-.8481.4743Zm-.2181 1.2914c-.1507.1484-.2419.3018-.2027.341.068.068.6448-.436.6448-.5634s-.1778-.0378-.4421.2224Zm-.6577.8934c-.2915.3352-.3008.3912-.0658.3912.0982 0 .2049-.1008.2371-.224.0322-.1232.1031-.224.1577-.224.0543 0 .0988-.0504.0988-.112 0-.1921-.1736-.1235-.4278.1688Zm-.6474.8672c-.4595.5303-.9408 1.1953-.9408 1.3 0 .0602-.0417.126-.093.1468-.129.0518-1.251 1.4613-1.251 1.5716 0 .0493.1008.0896.224.0896.1243 0 .224-.0748.224-.168 0-.0921.2016-.3755.448-.6294.2464-.254.448-.5452.448-.6477 0-.1022.252-.4502.56-.7731.308-.3228.56-.6616.56-.7523 0-.091.0504-.1655.112-.1655s.112-.0504.112-.112c0-.1865-.1725-.1266-.4032.14Zm-2.5088.644c0 .2671.1719.2971.268.0468.096-.2504.0884-.2708-.1-.2708-.0932 0-.168.0997-.168.224Zm-7.364.2828c-.1386.1481-.252.3436-.252.4346 0 .091-.0504.1965-.112.2346-.0616.0381-.112.1168-.112.1747 0 .058.0504.1053.112.1053s.112-.044.112-.098c0-.3842.9327-1.0441 1.0486-.742.0753.1966.2954.2265.2954.0403 0-.4357-.7305-.5356-1.092-.1495Zm2.4018.0963c-.2276.2086-.4138.4388-.4138.5121 0 .2142-.3651.5337-.4203.3677-.0815-.2442-.2517-.149-.2517.1411 0 .2052.0596.28.224.28.1232 0 .224-.0378.2243-.084 0-.0462.1512-.2604.3357-.476.1845-.2156.3357-.4284.3357-.4732.0011-.3713.8871-.4295.8946-.0588.0034.1691.2257.0784.2257-.0921 0-.5662-.5975-.6267-1.1542-.1168Zm4.5142-.0431c0 .0616-.0773.112-.1716.112-.0941 0-.2044.0882-.2445.196-.0854.229-.8111.924-.9649.924-.0576 0-.2245.1386-.3707.308-.4667.5407.0409.4726.5334-.0714.2293-.2534.4388-.4606.4654-.4606.1139 0 1.0623-.9974 1.0041-1.0556-.1028-.1028-.2512-.0745-.2512.0476Zm-3.36 1.7696V33.76h.3352c.2772 0 1.0088-.5373 1.0088-.7412 0-.0929-.4122.1322-.5732.3134-.4174.4698-.6059.2721-.565-.5925.0224-.4755-.0115-.8462-.084-.9187-.0876-.0876-.1218.1669-.1218.9086Zm-4.3411-.539c-.1672.268-.1815.5614-.0269.5614.0616 0 .112-.1008.112-.224s.0504-.224.112-.224.112-.0756.112-.168c0-.2346-.1442-.2094-.3091.0546Zm-1.5389.7854c-.0428.0694.1669.112.5533.112.3424 0 .6227-.0504.6227-.112s-.2489-.112-.5533-.112c-.3043 0-.5846.0504-.6227.112Zm-.756.0804c-.1694.0254-.308.0935-.308.1512 0 .0574-.1733.1044-.3853.1044-.2119 0-.4166.0504-.4547.112-.0381.0616-.2176.112-.3987.112-.1812 0-.3293.0504-.3293.112s-.1014.112-.2254.112c-.124 0-.313.0468-.42.1039-.107.0571-.2954.1428-.4186.1904-.1907.0739-.1716.0927.128.1265.1937.0219.5717-.0562.84-.1733.64-.2791 1.242-.4715 1.4758-.4715.1036 0 .1882-.0504.1882-.112s.1764-.112.392-.112c.2738 0 .392-.0507.392-.168 0-.0924-.0378-.1604-.084-.1512-.0462.0092-.2226.0378-.392.0636Zm10.1298.6249c-.1968.2033-.3578.4335-.3578.5121 0 .0784-.0756.2182-.168.3106-.0924.0924-.168.2147-.168.2721 0 .0571.0756.1039.168.1039.0924 0 .168.0431.168.0958 0 .1293 1.2418 1.0516 1.316.9774.0851-.0851-.9878-1.0732-1.1659-1.0732-.2593 0-.1638-.3452.1859-.672.1848-.1728.336-.3945.336-.4928 0-.0986.0504-.1792.112-.1792s.112-.0504.112-.112c0-.2016-.1739-.1184-.5382.2573Zm-13.8818.6941c-.194.2204-.1758.2806.084.2806.1232 0 .224-.0504.224-.112s.0787-.112.1747-.112c.0961 0 .1434-.0504.1053-.112-.0994-.161-.4245-.1302-.588.0554Zm-.588.3926c0 .0616-.1008.112-.224.112s-.224.0504-.224.112c0 .159.3559.1324.588-.044.2405-.1825.2509-.292.028-.292-.0924 0-.168.0504-.168.112Zm-1.344.672c-.2156.1845-.3338.3357-.2626.3357.1909.0003 1.0466-.4743 1.0466-.5804 0-.2011-.4141-.0717-.784.2447Zm-.672.56c0 .1817-.0748.224-.3956.224-.2532 0-.4192.0622-.4618.1728-.089.2318.0446.3488.2098.1836.0728-.0728.3491-.1324.614-.1324.5104 0 .5942-.1224.3256-.476-.1951-.2573-.292-.2478-.292.028ZM64 36.112c0 .0616.1008.112.224.112s.224-.0504.224-.112-.1008-.112-.224-.112-.224.0504-.224.112Zm-2.912.224c0 .0616.0504.112.112.112s.112.0778.112.1728c0 .0949.1008.2808.224.413.1232.1321.224.3066.224.3872 0 .0809.0504.147.112.147s.112.0921.112.2044c0 .2005.4315.6916.6076.6916.0493 0 .3301.2016.6244.448.2943.2464.5933.448.6647.448.0711 0 .2456.1134.3875.252.4721.4612 1.6674 1.4834 1.7887 1.5294.0655.0249.3477.2993.6272.6095.9903 1.1007 1.3479 1.3871 1.3479 1.0811 0-.0616-.0504-.112-.112-.112s-.112-.0773-.112-.1716c0-.0941-.0781-.2014-.1739-.238-.0955-.0367-.623-.5141-1.1723-1.0607-.5491-.5465-1.0503-.9937-1.1136-.9937-.0633 0-.3724-.252-.6871-.56-.3145-.308-.6222-.56-.6835-.56-.0613 0-.2528-.1512-.4256-.336-.1728-.1848-.376-.336-.4519-.336-.0756 0-.2193-.0916-.3189-.2038-.0997-.112-.2694-.2364-.3772-.2764-.1078-.04-.196-.1501-.196-.2442 0-.0943-.0504-.1716-.112-.1716s-.112-.1008-.112-.224-.0445-.224-.0988-.224c-.0546 0-.1255-.1008-.1577-.224-.0487-.1868-.0033-.224.2736-.224.1929 0 .3032-.047.2629-.112-.0381-.0616-.2145-.112-.392-.112-.1775 0-.3539-.0504-.392-.112-.0381-.0616-.142-.112-.2307-.112-.0888 0-.1613.0504-.1613.112Zm3.5426.14c-.1045.3903-.0899.42.2094.42.2363 0 .28-.0524.28-.336 0-.4158-.3828-.4816-.4894-.084Zm-17.6546.084c0 .0616.1543.112.3427.112.1997 0 .3136-.0468.2733-.112-.0381-.0616-.1924-.112-.3427-.112-.1504 0-.2733.0504-.2733.112Zm2.912.112c-.2038.1593-.2313.2198-.1014.2215.0983.0014.27-.0983.3814-.2215.2587-.2859.0854-.2859-.28 0Zm-5.1352.2943c-.1448.1543-.2304.3136-.1898.3539.0403.0403.1083.0244.1512-.0356.0428-.0596.1755-.1626.2951-.2287.1195-.0658.2371-.1792.2615-.252.0764-.2299-.2444-.1291-.518.1624Zm17.6792-.1823c0 .0616.1411.112.3136.112s.3696.056.4382.1246c.1621.1621.3769.0283.2954-.1842-.0725-.1888-1.0472-.2375-1.0472-.0524Zm-13.384.5079c-.1232.1507-.3088.2744-.4124.275-.1036.0005-.296.1523-.4276.3371-.1316.1848-.3209.336-.4206.336-.1814 0-2.6034 2.4122-2.6034 2.5925 0 .0527.0504.0955.112.0955s.112.0756.112.168c0 .24.1453.2075.3195-.0711.1187-.1901.1207-.2565.0087-.3257-.1669-.1033.115-.4432.3673-.4432.2081 0 1.3205-1.1606 1.3205-1.3776 0-.0966.0949-.2055.2106-.2422.245-.0778 1.9163-1.6268 1.7494-1.6215-.0616.002-.2128.1269-.336.2772Zm-5.367.5651c-.2876.2872-.4984.5468-.4688.5768.03.0296.2912-.1795.5808-.4648.2895-.2856.5003-.5452.4684-.5768-.0319-.032-.2932.1772-.5804.4648Zm15.5937.5518c.0353.3019.1084.4088.3136.4604.1473.0369.2677.112.2677.1668 0 .0552.1764.1.392.1.5121 0 .5155-.2349.0112-.7392-.5505-.5505-1.0494-.5443-.9845.012Zm.6065-.0288c.5163.2937.6712.532.3461.532-.1966 0-.7073-.4183-.7073-.5796 0-.126.0728-.1165.3612.0476Zm-17.4692.4945c-.2355.2542-.364.5073-.364.7159 0 .2305-.0448.3055-.1568.2624-.086-.033-.1898-.0062-.2304.0596s-.172.1196-.2915.1196c-.1196 0-.2173.0694-.2173.1546 0 .0848-.252.4186-.56.7414-.308.3228-.56.6342-.56.6916 0 .0574-.1509.2657-.3354.4626-.322.3432-.4489.7498-.2341.7498.0565 0 .1697-.1512.2514-.336.0818-.1848.1868-.336.2335-.336.0465 0 .0846-.0521.0846-.1156 0-.0639.1764-.2924.392-.508s.392-.4284.392-.4729c0-.4415.9285-1.0315 1.6237-1.0315.7765 0 1.0117-.187.3083-.2453-.4886-.0403-.7378-.6507-.2657-.6507.1237 0 .3035-.112.3993-.2489.3931-.5611.0464-.5704-.4696-.0126Zm2.268 2.5421c-.4306.5939-.4449.6314-.2397.6314.0941 0 .2604-.1512.3696-.336.1092-.1848.238-.336.2862-.336.1123 0 .1153-.3066.0039-.3727-.0462-.0274-.2352.1585-.42.4133Zm8.568-.3394c0 .1028-.0504.1868-.112.1868s-.112.0756-.112.168c0 .0924-.0504.168-.112.168s-.112.0966-.112.2148c0 .1178-.0378.2312-.084.252-.1582.0702-.588.9634-.588 1.2216v.2579l.224-.2405c.1232-.1322.224-.3332.224-.4469 0-.254.2492-.8089.364-.8101.0462-.0005.084-.1016.084-.2248s.0448-.224.1-.224c.1164 0 .276-.5572.1853-.6479-.0336-.0339-.0613.0227-.0613.1251Zm-8.4622.8963c-.1814.287-.3676.5222-.4138.5222-.0462.0003-.084.1011-.084.2243s-.0412.224-.0913.224c-.1005 0-.5807.8509-.5807 1.0293 0 .0616-.1056.2604-.2344.4413-.1355.1904-.2044.4079-.1632.5152.0776.2021.3976-.2798.3976-.5987 0-.0854.0504-.1551.112-.1551s.112-.0756.112-.168c0-.0924.0504-.168.112-.168s.112-.0784.112-.1742c0-.0957.2016-.4709.448-.8338s.448-.7339.448-.8246c0-.0904.058-.184.1288-.2078.0708-.0235.1058-.1114.0778-.1954-.0308-.0927-.1808.0529-.3808.3693Zm8.4622.2918c0 .25.0504.4547.112.4547s.112-.1733.112-.3853c0-.2119-.0504-.4166-.112-.4547-.0678-.0417-.112.1109-.112.3853Zm-9.184.0115c0 .0641-.1008.2248-.224.357-.1232.1321-.2867.3819-.3632.5552-.0767.1733-.1775.315-.2242.315-.0465 0-.0846.0756-.0846.168 0 .3738.4455-.0708.7577-.756.105-.231.2296-.42.2766-.42.0471 0 .0857-.0756.0857-.168 0-.0924-.0504-.168-.112-.168s-.112.0526-.112.1168Zm24.08.7112c0 .1173.0974.18.28.18.154 0 .28-.0504.28-.112s-.0462-.112-.1028-.112c-.0565 0-.1825-.0305-.28-.068-.1162-.0446-.1772-.0062-.1772.112Zm-29.0363.1176c-.2128.1556-.2637.3984-.0837.3984.0616 0 .112-.0714.112-.1588 0-.087.063-.1811.14-.2086.077-.0274.1148-.0778.0837-.1122-.0308-.0342-.1442.0025-.252.0812Zm14.3643.0624c0 .1232.0504.224.112.224s.112-.1008.112-.224-.0504-.224-.112-.224-.112.1008-.112.224Zm-.896.168c0 .112.112.168.336.168.224 0 .336-.056.336-.168 0-.112-.112-.168-.336-.168-.224 0-.336.056-.336.168Zm16.24-.1002c0 .0375.126.1671.28.2881.154.1212.28.3175.28.4362 0 .1187.0504.2159.112.2159.2131 0 .1109-.4592-.163-.733-.2578-.2579-.509-.3601-.509-.2072Zm-16.912.6535c0 .1503-.0504.3046-.112.3427-.0616.0381-.112.3212-.112.6292 0 .3449.0431.5334.112.4908.0616-.0381.112-.2428.112-.4547 0-.212.056-.3853.124-.3853.0779 0 .0969.1086.0513.2909-.0529.2109-.0333.2781.0719.2433.0796-.026.161-.2125.1806-.4144.0236-.2396-.0056-.341-.084-.2928-.0764.0476-.1198-.0695-.1198-.3243 0-.2192-.0504-.3987-.112-.3987s-.112.1229-.112.2733Zm.448.0067c0 .154.0504.28.112.28s.112-.126.112-.28c0-.154-.0504-.28-.112-.28s-.112.126-.112.28Zm.896-.1106c0 .3486.9358 1.5081 1.0914 1.3524.0378-.0375-.0915-.201-.2875-.3634-.1957-.1622-.3559-.3884-.3559-.5026 0-.1143-.0504-.2078-.112-.2078s-.112-.1008-.112-.224-.0504-.224-.112-.224-.112.0762-.112.1694Zm.448-.0112c0 .0871.308.4712.6846.8537.5326.5407.6507.7191.532.8022-.1184.0829-.1212.1196-.0126.1638.077.0311.14.1635.14.2937 0 .1846.03.2072.1344.1028.1044-.1044.1044-.1644 0-.2688-.1828-.1828-.1688-.3136.0336-.3136.0924 0 .168-.0504.168-.112s-.0423-.112-.0941-.112c-.1554 0-1.0701-.929-1.2409-1.26-.1708-.3312-.345-.4068-.345-.1498Zm-10.752.4018c0 .1232-.0504.224-.112.224s-.112.0756-.112.168c0 .2635.1543.1957.308-.1352.1691-.3643.1761-.4808.028-.4808-.0616 0-.112.1008-.112.224Zm-4.6746.1982c-.2646.3232-.3363.8574-.1316.984.1529.0943-.0543.3267-.2929.3284-.0893.0008-.1503.0482-.1358.1053.0345.1333 1.1346.0803 1.1841-.0569.0208-.0565.2854-.103.588-.103.303 0 .5508-.0504.5508-.112s.2268-.112.504-.112.504-.0504.504-.112c0-.068-.4959-.1126-1.26-.1137-1.5389-.0022-1.6352-.0459-1.3236-.6009.35-.6232.2473-.7372-.187-.2072Zm31.3306.3394c0 .1355-.0504.2464-.112.2464s-.112.1008-.112.224-.1008.3248-.224.448c-.2346.2346-.3366 1.2026-.112 1.064.0616-.0381.112-.2316.112-.4298 0-.2324.0798-.4183.224-.5222.1243-.0896.224-.2898.224-.4502 0-.1591.0605-.3495.1344-.4234.1044-.1044.1044-.1644 0-.2688-.1044-.1044-.1344-.0795-.1344.112Zm-27.104.3024c0 .0924-.0504.168-.112.168s-.112.1008-.112.224-.0504.224-.112.224-.112.1512-.112.336c0 .1848-.0504.336-.112.336s-.112.0977-.112.2173c0 .1195-.0504.2486-.112.2867-.0616.0381-.112.1672-.112.2867 0 .1196-.0504.2173-.112.2173s-.112.126-.112.28c0 .154.0504.28.112.28s.112-.0742.112-.1646c0-.0905.1008-.3442.224-.5634s.224-.4712.224-.56c0-.0888.1008-.3408.224-.56.1232-.2192.224-.4981.224-.6194 0-.1212.0504-.2206.112-.2206s.112-.0756.112-.168c0-.0924-.0504-.168-.112-.168s-.112.0756-.112.168Zm.448.336c0 .0924.0504.168.112.168s.112-.0756.112-.168c0-.0924-.0504-.168-.112-.168s-.112.0756-.112.168Zm9.0348-.0932c-.0412.0408-.0748.1668-.0748.28 0 .1128-.0378.1993-.084.192-.3391-.0537-.364.0381-.3604 1.3292.0028 1.1127.0264 1.286.151 1.1217.0812-.1067.1803-.1613.2206-.1213.04.0401.0728-.0392.0728-.1764 0-.1444-.049-.2189-.1168-.1769-.0784.0484-.1061-.217-.084-.8056.0286-.7635.0583-.8733.2288-.8445.1599.0266.196-.0509.196-.42 0-.4628-.0185-.5093-.1492-.3782Zm3.5092.2209c0 .1078.3724.3687.532.3727.077.0019.14-.0468.14-.1084 0-.0616-.0756-.112-.168-.112-.0924 0-.168-.0504-.168-.112s-.0756-.112-.168-.112c-.0924 0-.168.0322-.168.0717ZM42.72 45.8c0 .0924.0504.168.112.168s.112-.0756.112-.168c0-.0924-.0504-.168-.112-.168s-.112.0756-.112.168Zm13.664.168c0 .0616.0977.112.2173.112.1195 0 .2486-.0504.2867-.112.0392-.0636-.0549-.112-.2173-.112-.1576 0-.2867.0504-.2867.112Zm-19.04.28c0 .0924.0504.168.112.168s.112-.0756.112-.168c0-.0924-.0504-.168-.112-.168s-.112.0756-.112.168Zm5.152.0493c0 .1195-.0504.2486-.112.2867-.0616.0381-.112.1924-.112.3427 0 .1504-.0504.2733-.112.2733s-.112.126-.112.28c0 .154.0504.28.112.28s.112-.126.112-.28c0-.154.0504-.28.112-.28s.112-.0697.112-.1551c0-.0854.0731-.296.1624-.4682.1621-.3127.1411-.4967-.0571-.4967-.058 0-.1053.0977-.1053.2173ZM57 46.192c.0381.0616.2145.112.392.112.1775 0 .3539-.0504.392-.112.042-.0678-.1131-.112-.392-.112-.2789 0-.434.0442-.392.112Zm7.952.1571c.1232.0943.2612.1733.3066.1753.1697.0072.5776.3878 1.085 1.0116.1848.2268.2475.25.3315.1226.084-.1274.1557-.1008.3791.14.3372.364.8552.3988 1.0898.0734.0888-.1232.2512-.224.3606-.224.1218 0 .1994-.0834.1994-.2148 0-.1178.063-.2371.14-.2646.077-.0274.1036-.089.0594-.1366-.0446-.0476-.2285.0714-.4091.2646-.1803.1932-.3836.3514-.4511.3514-.0678 0-.1232.0504-.1232.112 0 .1246-.3338.1487-.6068.044-.0974-.0373-.1772-.13-.1772-.2061 0-.0759-.126-.1955-.28-.2655-.154-.0702-.28-.171-.28-.2245 0-.0532-.2394-.2173-.532-.3649-.2926-.1472-.5572-.2987-.588-.3362-.0308-.0376-.2072-.1045-.392-.149-.3195-.0767-.3251-.0722-.112.0913Zm-6.944.0669c.0381.0616.4192.112.8467.112.4435 0 .7773-.0482.7773-.112 0-.0647-.357-.112-.8467-.112-.5357 0-.821.0412-.7773.112Zm-3.192.4547c0 .2744.0442.427.112.3853.0616-.0381.112-.2428.112-.4547 0-.212-.0504-.3853-.112-.3853s-.112.2047-.112.4547Zm-17.7671-.189c-.0697.0798-.163.3584-.2069.6194-.0443.2609-.151.5015-.2372.5348-.0862.033-.1568.1778-.1568.3214 0 .1439-.0504.2926-.112.3307-.0616.0381-.112.1672-.112.2867 0 .1196-.0504.2173-.112.2173s-.112.1512-.112.336c0 .1848-.0504.336-.112.336s-.112.1481-.112.3293c0 .1811-.0504.3606-.112.3987-.0616.0381-.112.2176-.112.3987 0 .1812.0504.3293.112.3293s.112-.1512.112-.336c0-.1848.0381-.336.0848-.336.0927 0 .3632-.7907.3632-1.0623 0-.0933.0504-.1697.112-.1697s.112-.1764.112-.392.0448-.392.0997-.392.1666-.2268.2483-.504c.0818-.2772.1801-.504.2184-.504.0384 0 .128-.1282.1997-.2853.231-.5071.1282-.7921-.1652-.457ZM60.192 46.64c0 .0652.3732.112.896.112s.896-.0468.896-.112c0-.0652-.3732-.112-.896-.112s-.896.0468-.896.112Zm2.4724.4197c.1495.1691.3094.3245.3556.3453.0462.0207.084.1148.084.2091 0 .3951 1.1934 1.2452 1.5324 1.0915.1734-.0784.1577-.0986-.1044-.1344-.1694-.023-.308-.0891-.308-.1468 0-.0574-.0734-.1044-.163-.1044-.2111 0-.733-.5219-.733-.733 0-.0896-.0381-.163-.0846-.163-.0467 0-.1517-.1512-.2335-.336-.0969-.2187-.2304-.336-.3827-.336-.2285 0-.2277.0076.0372.3077ZM41.824 48.0893c0 .1195-.0504.2486-.112.2867-.0616.0381-.112.2428-.112.4547 0 .212.0504.3853.112.3853s.112-.1764.112-.392.0504-.392.112-.392.112-.126.112-.28c0-.154-.0504-.28-.112-.28s-.112.0977-.112.2173Zm24.64.1254c-.1814.2106-.3886.3259-.588.3273-.1694.0012-.308.0524-.308.114s.1229.112.2733.112c.1503 0 .3046-.0504.3427-.112.0381-.0616.1453-.112.2386-.112.2206 0 .4894-.2724.4894-.4959 0-.2525-.1282-.2049-.448.1666Zm-25.312.1053c0 .1848-.0504.336-.112.336s-.112.126-.112.28c0 .6166.3909.1333.4301-.532.0137-.231-.0272-.42-.0905-.42-.0635 0-.1156.1512-.1156.336Zm13.44-.056c0 .1669.0482.2635.112.224.0616-.0381.112-.1389.112-.224 0-.0851-.0504-.1859-.112-.224-.0638-.0395-.112.0571-.112.224Zm-2.912.931c0 .3872.0493.693.112.693.0616 0 .112.2016.112.448s.0504.448.112.448.112.1512.112.336c0 .1848.0504.336.112.336s.112.126.112.28c0 .154.0504.28.112.28s.112-.1512.112-.336c0-.1848-.0504-.336-.112-.336s-.112-.2268-.112-.504-.0504-.504-.112-.504c-.0624 0-.112-.3002-.112-.6768 0-.5219-.0512-.7316-.224-.917l-.224-.2405v.6933Zm3.1438.721c-.0044.3598.0415.644.1042.644.135 0 .135-.7498 0-1.064-.0692-.1613-.0986-.0434-.1042.42Zm-14.1198-.2027c0 .1503-.0504.3046-.112.3427-.0616.0381-.112.2397-.112.448s-.0504.4099-.112.448c-.0616.0381-.112.2397-.112.448s-.0504.4099-.112.448c-.0616.0381-.112.2708-.112.5172 0 .2702.0445.4205.112.3788.0616-.0381.112-.1893.112-.336 0-.1467.0504-.2979.112-.336.0616-.0381.112-.2901.112-.56 0-.2699.0504-.5219.112-.56.0616-.0381.112-.1893.112-.336 0-.1467.0504-.2979.112-.336.0616-.0381.112-.2428.112-.4547 0-.212-.0504-.3853-.112-.3853s-.112.1229-.112.2733Zm.672-.056c0 .1195-.0504.2486-.112.2867-.0616.0381-.112.2397-.112.448s-.0409.404-.0907.4348c-.1383.0854-.1627 1.0772-.0263 1.0772.0658 0 .117-.245.117-.56 0-.308.0504-.56.112-.56s.112-.1764.112-.392.0504-.392.112-.392.112-.126.112-.28c0-.154-.0504-.28-.112-.28s-.112.0977-.112.2173Zm-3.052 1.092c-.2022.0526-.2761.2587-.0932.2587.1937 0 .4572-.1361.4572-.236 0-.1045-.0414-.107-.364-.0227Zm16.716.4043c0 .2033.0462.4175.1025.476.0565.0585.1232.2324.1484.3864.0411.2517.0551.2587.1391.0692.0566-.128.0423-.2926-.0364-.4186-.0714-.114-.1296-.3596-.1296-.5452 0-.1856-.0504-.3374-.112-.3374s-.112.1663-.112.3696ZM37.4 51.12c-.0381.0616-.2428.112-.4547.112-.212 0-.3853.0504-.3853.112s-.1008.112-.224.112-.224.0563-.224.1252c0 .0697.0988.0991.224.0663.3004-.0787.2822.0154-.0759.3892-.1649.1722-.2615.3511-.2147.3979.0467.0468.1439.0095.2158-.0829.072-.0921.2688-.2388.4374-.3259.2262-.1168.2761-.1949.1907-.2979-.0812-.0977-.077-.1641.0137-.2204.0717-.0439.168-.0187.2145.0566.0887.1436.5625-.0644.5625-.247 0-.0467.0756-.0851.168-.0851.0924 0 .168-.0504.168-.112s-.1229-.112-.2733-.112c-.1503 0-.3046.0504-.3427.112Zm15.176 1.344c0 .1232.0504.224.112.224s.112-.1008.112-.224-.0504-.224-.112-.224-.112.1008-.112.224Zm-11.872.4973c0 .3351.0504.6406.112.6787.07.0431.112-.1856.112-.6093 0-.3777-.0496-.6787-.112-.6787-.0616 0-.112.2741-.112.6093Zm14.784-.3853c0 .1232.0504.224.112.224s.112.1008.112.224.0504.224.112.224.112.126.112.28c0 .154.0504.28.112.28s.112-.0977.112-.2173c0-.1195-.0504-.2486-.112-.2867-.0616-.0381-.112-.1672-.112-.2867 0-.1196-.0504-.2173-.112-.2173s-.112-.1008-.112-.224-.0504-.224-.112-.224-.112.1008-.112.224Zm-15.68.5533c0 .1884-.0504.3427-.112.3427s-.112.147-.112.3268c0 .1794-.0398.3432-.0879.364-.1509.0638-.6118.7747-.5457.8411.1545.1545.8576-.9151.8576-1.3048 0-.1176.0504-.245.112-.2831.0616-.0381.112-.1641.112-.28 0-.1159-.0504-.2419-.112-.28-.0652-.0403-.112.0736-.112.2733Zm12.992-.1017c0 .1818.5684 1.2572.6314 1.1945.0535-.0537.0148-.1543-.278-.7207-.0712-.1378-.1294-.3268-.1294-.42s-.0504-.1694-.112-.1694-.112.0521-.112.1156ZM36.672 54.06c.0003.2016.546.8072.6412.712.0442-.0442.0314-.1153-.0286-.1582-.0599-.0428-.1803-.2164-.2676-.3858-.1658-.3214-.345-.4088-.345-.168Zm19.488-.0504c0 .1624.2783.6927.364.6936.1355.0014.0896-.3744-.072-.5872-.157-.2072-.292-.2562-.292-.1064Zm-15.68.8624c0 .4108.0487.728.112.728s.112-.3172.112-.728-.0487-.728-.112-.728-.112.3172-.112.728Zm16.1305.0272c.0014.0464.1011.2108.2215.3648.1204.154.2201.3206.2215.3702.0014.0495.2041.3869.4505.7498s.448.7129.448.7778c0 .065.0504.1182.112.1182s.112.1008.112.224.0426.224.0944.224c.052 0 .2111.2268.3536.504.1425.2772.3016.504.3536.504.0518 0 .0944.0756.0944.168 0 .0924.0504.168.112.168s.112.0661.112.147c0 .2024.4343 1.0847.5345 1.0858.0865.0009.3615.5357.3615.7028 0 .0544.2016.506.448 1.0036.2464.4972.448.9718.448 1.0544 0 .0829.0504.1504.112.1504s.112-.126.112-.28c0-.154-.0504-.28-.112-.28s-.112-.1229-.112-.2733c0-.1503-.0504-.3046-.112-.3427-.0616-.0381-.112-.1672-.112-.2867 0-.1196-.0504-.2173-.112-.2173s-.112-.1008-.112-.224-.0504-.224-.112-.224-.112-.1008-.112-.224-.0386-.224-.0857-.224c-.047 0-.1699-.1949-.2733-.4332-.103-.2385-.2536-.5051-.3343-.5924-.2245-.2434-.4267-.6323-.4267-.821 0-.0932-.0504-.1694-.112-.1694s-.112-.0661-.112-.147c0-.0806-.0882-.2444-.1963-.364-.1078-.1193-.3172-.4564-.4653-.749-.1484-.2926-.312-.532-.364-.532-.0518 0-.0944-.063-.0944-.14-.0003-.077-.1313-.2912-.2912-.476-.1602-.1848-.3707-.5186-.4682-.7417-.1587-.3637-.5882-.7882-.5821-.5751Zm-19.2665.1699c0 .0776.1008.2039.224.2809.1327.0828.224.094.224.0268 0-.0618-.0504-.1128-.112-.1128s-.112-.0756-.112-.168c0-.0924-.0504-.168-.112-.168s-.112.0636-.112.1411Zm1.1606.2509c-.0356.0924-.1347.168-.2206.168-.0857 0-.156.0504-.156.112 0 .1456.0146.1436.4309-.0641.3744-.1868.4676-.3839.1815-.3839-.0941 0-.2005.0756-.2358.168Zm1.8262.8028c-.119.1187-.0866.9332.0372.9332.0616 0 .112-.2268.112-.504 0-.5127-.0171-.5617-.1492-.4292Zm-.2988 1.3185c0 .0887.0504.1926.112.2307.0616.0381.112-.0344.112-.1613 0-.1268-.0504-.2307-.112-.2307s-.112.0725-.112.1613Zm.084.6919c-.0434.0686.021.215.1425.3253.1266.1143.2215.1448.2215.0709 0-.0712-.0468-.1294-.1039-.1294-.0571 0-.1212-.0882-.1425-.196-.0249-.1254-.0672-.1509-.1176-.0708Zm7.3713.255c-.0669.1081.1839.2358.4637.2358.1405 0 .1467-.0311.033-.168-.1554-.1873-.4021-.2209-.4967-.0678Zm.8327.3478c0 .0616.0756.112.168.112.0924 0 .168-.0504.168-.112s-.0756-.112-.168-.112c-.0924 0-.168.0504-.168.112Zm.448.224c0 .0616.1008.112.224.112s.224.0504.224.112.1008.112.224.112.224.0459.224.1019c0 .0563.2268.212.504.3461.2772.1341.504.2881.504.3422 0 .1338.45.3654.5384.2769.039-.0392-.003-.119-.0938-.1773-.1447-.0932-.1447-.1184 0-.2116.0908-.0583.1258-.1451.0782-.193-.0479-.0476-.1297-.0179-.1815.0664-.0607.098-.1694.1224-.3021.0678-.1372-.0566-.1599-.1031-.0672-.1378.2204-.0823.1632-.2576-.084-.2576-.1232 0-.224-.0504-.224-.112s-.126-.112-.28-.112c-.154 0-.28-.0454-.28-.1011 0-.1055-.5956-.3469-.8568-.3469-.0832 0-.1512.0504-.1512.112Zm-7.392.4001c0 .1187.3461.4111.4108.3467.035-.0353-.014-.142-.1095-.2375-.1778-.1778-.3013-.2226-.3013-.1092Zm1.2886 1.0565c.112.1237.2265.2016.2548.1733.0604-.0605-.2588-.3979-.3766-.3979-.0448 0 .01.1011.1218.2246Zm8.9182-.0432c-.1318.1493-.1019.2257.2182.5558.4253.4391.551.4752.551.1588 0-.1291-.0748-.224-.1761-.224-.2103 0-.5525-.3167-.4514-.4178.0392-.0392.1308-.0117.2039.0614.1615.1615.4236.1741.4236.0204 0-.0616-.0756-.112-.168-.112-.0924 0-.168-.0504-.168-.112 0-.1683-.2593-.1268-.4332.0694Zm19.5852.6026c-.154.1812-.3368.3307-.4066.3326-.0694.002-.3228.1924-.5628.4234-.2402.231-.5737.4914-.7417.579-.1677.0874-.3049.2008-.3049.252 0 .051-.0896.093-.1994.093-.1094 0-.2718.1008-.3606.224-.0888.1232-.2512.224-.3606.224-.1098 0-.1994.0504-.1994.112s-.0661.112-.147.112c-.0806 0-.2551.1008-.3872.224-.1322.1232-.3181.224-.413.224-.095 0-.1728.0504-.1728.112s-.1008.112-.224.112-.2243.0378-.2248.084c-.0012.1005-.5435.364-.7496.364-.0801 0-.1456.0504-.1456.112s-.1229.112-.2733.112c-.1503 0-.3046.0504-.3427.112-.0381.0616-.1672.112-.2867.112-.1196 0-.2173.0504-.2173.112s-.1014.112-.2254.112c-.124 0-.3256.0504-.448.112-.1224.0616-.3228.1624-.4452.224-.1224.0616-.3744.112-.56.112-.1856 0-.3374.0504-.3374.112s-.1512.112-.336.112c-.1848 0-.336.0504-.336.112s-.2016.112-.448.112-.448.0504-.448.112-.2167.112-.4816.112c-.2649 0-.5295.0454-.588.1011-.0585.0554-.4844.131-.9464.168-1.7693.1408-1.9816.1851-2.1162.4407-.0941.1786-.1199 4.3999-.0978 16.0902l.03 15.848.3436.0336c.334.0325 1.6164-1.0242 1.6164-1.332 0-.0568.504-.614 1.12-1.2381.616-.6241 1.12-1.1805 1.12-1.2362 0-.0557.443-.5424.9845-1.0819.5415-.5393 1.0942-1.1352 1.2286-1.3236.1344-.1887.8003-.912 1.4795-1.6075.6796-.6952 1.2354-1.3084 1.2354-1.3622 0-.054.2204-.3183.4894-.5874.2691-.2694.6345-.6838.812-.9212.1776-.2372.5494-.6583.8266-.9355s.7308-.7812 1.008-1.12c.2772-.3388.7823-.8932 1.1228-1.232.3402-.3388.7428-.7924.8949-1.008.152-.2156.6294-.7515 1.0612-1.1911 1.1595-1.1802 2.2971-2.3915 2.2971-2.4458 0-.0261 1.1388-1.1967 2.5304-2.6012 1.3916-1.4048 2.6642-2.7286 2.828-2.942.1638-.2136.8898-.9864 1.6136-1.7178 1.9404-1.96 2.3649-1.1424-3.7878-7.2948L72.384 60.64l-.4678.0034c-.3778.0028-.5222.0669-.7482.3326Zm-18.2339.1056c.1353.2167.6208.4088.7378.2917.0339-.0336-.0227-.0613-.1251-.0613-.1028 0-.1868-.0504-.1868-.112s-.0756-.112-.168-.112c-.0924 0-.168-.0504-.168-.112s-.051-.112-.1128-.112c-.0681 0-.0591.0865.0229.2176Zm-13.1199.0904c.0033.0462.1671.2089.364.3618.2749.2133.3189.2265.1898.0565-.3492-.4603-.5692-.6263-.5538-.4183Zm12.6498.2324c0 .1369.4976.5796.6513.5796.0731 0 .1327.0669.1327.1484 0 .1506.4542.6356.5953.6356.2027 0 .0224-.2831-.5368-.8425-.5737-.5735-.8425-.7398-.8425-.5211Zm-7.896.2436c.0381.0616.142.112.2307.112.0888 0 .1613.0504.1613.112s.0756.112.168.112c.0924 0 .168-.0504.168-.112s-.0756-.112-.168-.112c-.0924 0-.168-.0504-.168-.112s-.1039-.112-.2307-.112c-.1269 0-.1994.0504-.1613.112Zm9.3716.2178c.236.2991.6544.4648.651.2582-.0014-.0854-.7244-.588-.8456-.588-.0364 0 .0512.1484.1946.3298Zm-8.442.2526c.1044.1044.1644.1044.2688 0 .1044-.1044.0748-.1344-.1344-.1344s-.2388.03-.1344.1344Zm.3584.2016c0 .0616.0756.112.168.112.0924 0 .168-.0504.168-.112s-.0756-.112-.168-.112c-.0924 0-.168.0504-.168.112Zm8.96.1744c0 .1084 1.7063 1.7405 1.7618 1.6851.0602-.0602-1.5669-1.7475-1.6851-1.7475-.0423 0-.0767.028-.0767.0624Zm-8.008.2736c.0381.0616.1641.112.28.112.1159 0 .2419.0504.28.112.0381.0616.1672.112.2867.112.1196 0 .2173.0504.2173.112s.1229.112.2733.112c.1503 0 .3046-.0504.3427-.112.0403-.0652-.0736-.112-.2733-.112-.1884 0-.3427-.0504-.3427-.112s-.1008-.112-.224-.112-.224-.0504-.224-.112-.1543-.112-.3427-.112c-.1997 0-.3136.0468-.2733.112Zm7.112.28c0 .0924.0504.168.112.168s.112-.0756.112-.168c0-.0924-.0504-.168-.112-.168s-.112.0756-.112.168Zm-5.376.392c0 .0616.126.112.28.112.154 0 .28-.0504.28-.112s-.126-.112-.28-.112c-.154 0-.28.0504-.28.112Zm5.6.224c0 .2044.0465.3206.112.28.0616-.0381.112-.1641.112-.28 0-.1159-.0504-.2419-.112-.28-.0655-.0406-.112.0756-.112.28Zm-4.872 0c.0381.0616.1893.112.336.112.1467 0 .2979-.0504.336-.112.0412-.0669-.0944-.112-.336-.112-.2416 0-.3772.0451-.336.112Zm.896.224c.0381.0616.2428.112.4547.112.212 0 .3853-.0504.3853-.112s-.2047-.112-.4547-.112c-.2744 0-.427.0442-.3853.112Zm10.08 0c.0381.0616.2145.112.392.112.1775 0 .3539-.0504.392-.112.042-.0678-.1131-.112-.392-.112-.2789 0-.434.0442-.392.112Zm-9.016.224c0 .0616.2016.112.448.112s.448-.0504.448-.112S51.9264 64 51.68 64s-.448.0504-.448.112Zm7.84 0c0 .0616.1733.112.3853.112.2119 0 .4166-.0504.4547-.112.0417-.0678-.1109-.112-.3853-.112-.25 0-.4547.0504-.4547.112Zm-5.684.089c-.4572.0185-.812.0829-.812.1473 0 .1381 1.5571.0958 1.6439-.0448.0843-.1361.0621-.1389-.8319-.1025Zm3.388.135c.0381.0616.4917.112 1.008.112s.9699-.0504 1.008-.112c.0442-.0717-.3184-.112-1.008-.112s-1.0522.0403-1.008.112Zm-6.1454 2.0398c.0302.0484.1806.0882.3346.0882.1554 0 .2497-.049.2119-.1103-.0375-.0608-.1881-.1003-.3346-.0882-.1464.012-.2419.0619-.2119.1103ZM28.16 71.4771c0 .0468.1008.1479.224.2249.1327.0828.224.094.224.0268 0-.0618-.0535-.1128-.1187-.1128-.0653 0-.0874-.0504-.0493-.112.0381-.0616-.0092-.112-.1053-.112-.096 0-.1747.0384-.1747.0851Zm26.1374 1.0349c0 .6468.0185.9114.0412.588s.0227-.8526 0-1.176c-.0227-.3234-.0412-.0588-.0412.588Zm-23.6308 1.7016c-.0468.0758-.0264.0938.052.045.0768-.0473.1294-.0086.1294.0947 0 .0999.0958.1747.224.1747.308 0 .2811-.1621-.0521-.3139-.203-.0924-.2962-.0927-.3533-.0005Zm9.2537 9.6653c.2153.2455.4043.4681.4197.4945.0154.0263.0524.0238.082-.0059.0297-.0297-.1593-.2523-.42-.4948l-.4737-.4407.392.4469ZM54.4192 90.88c0 2.5564.0146 3.6022.0328 2.324.0179-1.2782.0179-3.3698 0-4.648-.0182-1.2782-.0328-.2324-.0328 2.324ZM43.168 87.3601c0 .1187.3461.4111.4108.3467.035-.0353-.014-.142-.1095-.2375-.1778-.1778-.3013-.2226-.3013-.1092Z"/>
  </g>
  <defs>
    <clipPath id="a">
      <path fill="#fff" d="M0 0h100v100H0z"/>
    </clipPath>
  </defs>
</svg>