<svg xmlns="http://www.w3.org/2000/svg" xml:space="preserve" id="logo" x="0" y="0" style="enable-background:new 0 0 1269.8 150" version="1.1" viewBox="0 0 1269.8 150"><style>.st4{fill:#939598}.st10{fill:#004b8d}</style><g id="_x31_line_x5F_plain_1_"><g id="mf_x5F_logo_x5F_1line_x5F_pos_x5F_4c_x5F_grad"><g id="mf_x5F_100_12_"><g id="mf_12_"><path id="D_46_" d="M1219.8 23.8h-40v100h40c27.3 0 50-22.8 50-50s-22.7-50-50-50zm0 90h-30v-80h30c21.8 0 40 18.3 40 40s-18.2 40-40 40z" class="st4"/><path id="L_12_" d="M1159.8 123.8h-75v-100h10v90h65z" class="st4"/><path id="O_46_" d="M1066.8 73.8c0 28.7-23.3 52-52 52s-52-23.3-52-52 23.3-52 52-52 52 23.2 52 52zm-52-42c-23.2 0-42 18.8-42 42s18.8 42 42 42 42-18.8 42-42-18.8-42-42-42z" class="st4"/><path id="F_12_" d="M949.8 33.8v-10h-80v100h10v-45h65v-10h-65v-35z" class="st4"/><path id="N_12_" d="M849.8 23.8h-15v76.4l-58.3-76.4h-16.7v100h15V46.3l59.2 77.5h15.8z" class="st10"/><path id="R_3_" d="M649.8 23.8h57.5c17.3 0 32.5 15.2 32.5 32.5 0 12.6-8 24-19.1 29.4l19.1 38.1H723l-17.5-35h-40.7v35h-15v-100zm57.5 50c9 0 17.5-8.5 17.5-17.5s-8.5-17.5-17.5-17.5h-42.5v35h42.5z" class="st10"/><path id="E_3_" d="M629.8 38.8v-15h-80v100h80v-15h-65V81.3h60v-15h-60V38.8z" class="st10"/><path id="D_3_" d="M479.8 23.8h-40v100h40c27.3 0 50-22.8 50-50s-22.7-50-50-50zm-25 85v-70h25c19 0 35 16 35 35s-16 35-35 35h-25z" class="st10"/><path id="O_3_" d="M421.8 73.8c0 28.7-23.3 52-52 52s-52-23.3-52-52 23.3-52 52-52 52 23.2 52 52zm-52-37c-20.4 0-37 16.6-37 37s16.6 37 37 37 37-16.6 37-37c0-20.5-16.6-37-37-37z" class="st10"/><path id="M_1_" d="m282.4 23.8-32.6 41.8-32.7-41.8h-17.3v100h15V45.2l35 44.7 35-44.7v78.6h15v-100z" class="st10"/></g></g><g id="mf_x5F_4c_x5F_symmetric_1_"><g id="out_x5F_4c_1_"><radialGradient id="out_x5F_4c_4_" cx="69.355" cy="72.429" r="94.755" gradientUnits="userSpaceOnUse"><stop offset="0" style="stop-color:#fff"/><stop offset=".3" style="stop-color:#fff"/><stop offset=".6" style="stop-color:#e9eaea"/><stop offset="1" style="stop-color:#939598"/></radialGradient><path id="out_x5F_4c_2_" d="M19.3 23.3c8.2-9 18.5-16 30.2-20.2.8-.3 1.6-.5 2.4-.8-.8.3-1.5.6-2.3.9-2.9 1.4-5.5 3.3-7.2 6.3-3.5 6.1-2.2 14.3 2.9 22.9 6.4 11 18.8 22.8 34.9 32.1 11.5 6.7 23.2 11.1 33.5 13 12.8 2.5 23.6 1.2 29.7-3.8 1.3-1.1 2.4-2.4 3.3-3.9 1.5-2.5 2-5.2 2-7.9 0-1-.1-2-.2-3 0-.3-.1-.6-.2-1 .1.4.2.9.2 1.3.5 2.9.9 5.8 1.1 8.8-.1 1.9-.5 3.7-1.1 5.5-6.8 20.5-42 27.3-78.6 15.2C33.2 76.8 9 50.4 15.8 29.9c.8-2.4 2-4.6 3.5-6.6zm58.4 97.3c34.9-2.4 63.5-18.2 71.5-37.7.4-3 .6-6 .6-9.1v-1.4c-.2 1.8-.5 3.6-1.1 5.3-7 21.2-43 28.3-80.5 15.9S6 54 13 32.8c.5-1.5 1.1-2.9 1.9-4.3C5.4 41.1-.2 56.8-.2 73.8c0 7.5 1.1 14.7 3.1 21.5 11.8 16.9 41.2 27.6 74.8 25.3zm17.5 17.5c24.5-9.5 43.1-25.6 51.3-42.3.8-2.7 1.5-5.4 2-8.2-7.9 19.6-36.3 35.3-71 37.5-32.4 2-60.9-8.4-72.9-24.9 8.4 22.3 27.1 39.5 50.2 45.9 12.6 0 26.5-2.6 40.4-8zm-1.7 3.8c-10.7 3.6-21.3 5.5-31.2 5.8 4 .7 8.2 1 12.4 1 29.6 0 55.2-17.2 67.4-42.1-9.2 14.6-26.6 27.8-48.6 35.3z" style="fill:url(#out_x5F_4c_4_)"/><radialGradient id="out_x5F_stream_2_" cx="65.022" cy="54.263" r="70.704" gradientUnits="userSpaceOnUse"><stop offset=".2" style="stop-color:#4078a9"/><stop offset=".6" style="stop-color:#26669e"/><stop offset="1" style="stop-color:#004b8d"/></radialGradient><path id="out_x5F_stream_4_" d="M15.8 29.9C9 50.4 33.2 76.8 69.9 88.9c36.6 12.1 71.8 5.3 78.6-15.2.6-1.8.9-3.6 1.1-5.5.1 1.4.2 2.8.2 4.1-.2 1.8-.5 3.6-1.1 5.3-7 21.2-43 28.3-80.5 15.9C30.7 81.2 6 54 13 32.8c.5-1.5 1.1-2.9 1.9-4.3 1.4-1.8 2.8-3.6 4.3-5.2-1.4 2-2.6 4.2-3.4 6.6zm79.4 108.2c-13.9 5.4-27.8 8-40.4 7.9 2.5.7 5 1.2 7.5 1.7 10-.3 20.6-2.2 31.2-5.8 22-7.5 39.3-20.7 48.6-35.2 1.7-3.5 3.2-7.1 4.3-10.9-8.1 16.7-26.7 32.8-51.2 42.3zm-17.5-17.5c-33.6 2.3-63-8.4-74.8-25.3.5 1.7 1.1 3.3 1.7 5 12 16.4 40.4 26.9 72.9 24.9 34.7-2.2 63.1-17.9 71-37.5.3-1.6.5-3.1.7-4.7-8.1 19.3-36.6 35.1-71.5 37.6z" style="fill:url(#out_x5F_stream_2_)"/></g><g id="in_x5F_4c_1_"><radialGradient id="in_x5F_4c_4_" cx="65.022" cy="54.263" r="70.704" gradientUnits="userSpaceOnUse"><stop offset=".2" style="stop-color:#4078a9"/><stop offset=".6" style="stop-color:#26669e"/><stop offset="1" style="stop-color:#004b8d"/></radialGradient><path id="in_x5F_4c_2_" d="M146.7 69.8c0 .1-.1.1-.1.2-8 13.8-37.7 11.4-66.5-5.3-3.4-2-6.6-4.1-9.7-6.2 33.9-11.1 66.5-6 76.3 11.3zM77.7 27c-12.2-.8-23.8 0-34.2 2.3 4 8.4 11.7 17.4 22.2 25.6.9-.3 1.7-.6 2.6-.9 36-11.9 70.7-5.8 79.5 13.5.5-1.4.8-2.9.8-4.4-9-18.7-36.9-33.8-70.9-36.1zm-.3-4.5c34.6 2.1 62.9 17.8 70.9 37.3-.1-1.2-.4-2.4-.7-3.5-.4-1.4-.8-2.9-1.3-4.6-8.1-16.7-26.7-32.8-51.1-42.3-13.9-5.4-27.8-8-40.4-7.9-.4.1-.7.2-1.1.3-4.6 1.2-8.9 3.4-11.4 7.8s-2.5 9.9-.5 15.8c10.8-2.6 22.9-3.7 35.6-2.9zM93.5 5.6c21.9 7.5 39.3 20.6 48.6 35.1-.7-1.4-1.4-2.8-2.3-4.3-6.8-11.9-16.4-21.2-27.5-27.6-11-6.4-23.9-10.1-37.6-10.1-4.9 0-9 .4-12.5 1C72.2.1 82.9 2 93.5 5.6z" style="fill:url(#in_x5F_4c_4_)"/><radialGradient id="in_x5F_stream_2_" cx="66.022" cy="55.013" r="91.193" gradientUnits="userSpaceOnUse"><stop offset=".2" style="stop-color:#fff"/><stop offset=".6" style="stop-color:#e9eaea"/><stop offset="1" style="stop-color:#a9aaad"/></radialGradient><path id="in_x5F_stream_4_" d="M95.2 9.4C81.3 4 67.4 1.4 54.8 1.5 57 .9 59.4.3 62.3-.2 72.3.1 82.9 2 93.6 5.6c21.9 7.5 39.3 20.6 48.6 35.1 2 4.1 3.3 7.7 4.3 10.8-8.3-16.5-26.9-32.6-51.3-42.1zm53.2 50.3c-8.1-19.5-36.4-35.1-70.9-37.3-12.7-.8-24.9.3-35.6 3 .4 1.2 1 2.5 1.6 3.8 10.4-2.2 22-3.1 34.2-2.2 34 2.4 62 17.4 70.9 36.2 0-1.2-.1-2.3-.2-3.5zM68.2 54c-.9.3-1.7.6-2.6.9 1.5 1.2 3.1 2.4 4.8 3.6 34-11.1 66.6-5.9 76.3 11.4.4-.7.8-1.5 1-2.3-8.8-19.4-43.5-25.5-79.5-13.6z" style="fill:url(#in_x5F_stream_2_)"/></g><radialGradient id="highlight_3_" cx="64.114" cy="28.091" r="73.403" gradientUnits="userSpaceOnUse"><stop offset="0" style="stop-color:#a9aaad"/><stop offset=".4" style="stop-color:#e9eaea"/><stop offset=".8" style="stop-color:#fff"/></radialGradient><path id="highlight_1_" d="M49.1 3.7c.8-.5 1.6-1 2.3-1.2-.8.3-1.2.4-1.9.8-2.9 1.4-5.6 3.3-7.3 6.3-3.5 6.1-2.1 14.3 2.9 23 6.4 11 18.8 22.8 34.9 32.1 11.5 6.7 23.2 11.1 33.6 13.1 12.8 2.5 23.6 1.2 29.7-3.9 1.3-1.1 2.5-2.4 3.3-3.9 1.5-2.5 2-5.3 2-8 0-1-.1-1.8-.3-2.8 0-.3 0-.2-.1-.5.1.7.1 1 .2 2.2.1 2.1-.5 4.4-1.1 5.7-.9 2.1-2.2 4.4-4.8 6.5-3.3 2.7-9.7 4.8-17.1 4.8-3.6 0-7.6-.4-11.8-1.2-10.7-2-22.2-6.5-33.2-12.9C65.2 54.9 51.8 42.3 46 32.1c-1.4-2.6-5.4-9.8-4.5-17 .9-6.2 4.6-9.4 7.6-11.4z" style="fill:url(#highlight_3_)"/></g></g></g></svg>