<svg xmlns="http://www.w3.org/2000/svg" width="398" height="338" viewBox="0 0 398 338" fill="none">
<path d="M5.58 184.98C2.49 184.98 0 182.47 0 179.4V150.25C0 147.17 2.49 144.67 5.58 144.67C8.67 144.67 11.16 147.18 11.16 150.25V179.4C11.16 182.48 8.66 184.98 5.58 184.98Z" fill="url(#paint0_linear_1_41)"/>
<path d="M23.11 168.45C20.03 168.45 17.53 165.95 17.53 162.87V108.44C17.53 105.35 20.03 102.86 23.11 102.86C26.19 102.86 28.69 105.36 28.69 108.44V162.87C28.69 165.96 26.19 168.45 23.11 168.45Z" fill="url(#paint1_linear_1_41)"/>
<path d="M40.64 162.42C37.56 162.42 35.06 159.93 35.06 156.84V82.18C35.06 79.1 37.56 76.6 40.64 76.6C43.72 76.6 46.22 79.11 46.22 82.18V156.84C46.22 159.93 43.72 162.42 40.64 162.42V162.42Z" fill="url(#paint2_linear_1_41)"/>
<path d="M58.18 162.98C55.1 162.98 52.6 160.48 52.6 157.4V62.69C52.6 59.61 55.1 57.11 58.18 57.11C61.26 57.11 63.76 59.62 63.76 62.69V157.39C63.76 160.48 61.26 162.97 58.18 162.97V162.98Z" fill="url(#paint3_linear_1_41)"/>
<path d="M75.71 170.4C72.63 170.4 70.13 167.91 70.13 164.83V47.46C70.13 44.37 72.63 41.88 75.71 41.88C78.79 41.88 81.29 44.37 81.29 47.46V164.83C81.29 167.91 78.79 170.4 75.71 170.4Z" fill="url(#paint4_linear_1_41)"/>
<path d="M93.3 190.89C90.21 190.89 87.72 188.39 87.72 185.32V35.2901C87.72 32.2001 90.21 29.7101 93.3 29.7101C96.39 29.7101 98.88 32.2101 98.88 35.2901V185.32C98.88 188.4 96.39 190.89 93.3 190.89Z" fill="url(#paint5_linear_1_41)"/>
<path d="M110.83 178.73C107.74 178.73 105.25 176.22 105.25 173.15V25.6701C105.25 22.5901 107.74 20.0901 110.83 20.0901C113.92 20.0901 116.41 22.6001 116.41 25.6701V173.15C116.41 176.23 113.92 178.73 110.83 178.73V178.73Z" fill="url(#paint6_linear_1_41)"/>
<path d="M128.36 166.05C125.28 166.05 122.78 163.54 122.78 160.47V18.1401C122.78 15.0501 125.27 12.5601 128.36 12.5601C131.45 12.5601 133.94 15.0601 133.94 18.1401V160.47C133.94 163.55 131.45 166.05 128.36 166.05Z" fill="url(#paint7_linear_1_41)"/>
<path d="M145.89 161.97C142.81 161.97 140.31 159.48 140.31 156.39V12.56C140.31 9.46998 142.81 6.97998 145.89 6.97998C148.97 6.97998 151.47 9.46998 151.47 12.56V156.39C151.47 159.48 148.97 161.97 145.89 161.97Z" fill="url(#paint8_linear_1_41)"/>
<path d="M163.48 164.26C160.4 164.26 157.9 161.77 157.9 158.68V8.60002C157.9 5.51002 160.4 3.02002 163.48 3.02002C166.56 3.02002 169.06 5.51002 169.06 8.60002V158.68C169.06 161.77 166.57 164.26 163.48 164.26V164.26Z" fill="url(#paint9_linear_1_41)"/>
<path d="M181.01 174.09C177.93 174.09 175.43 171.6 175.43 168.51V6.36003C175.43 3.28003 177.93 0.780029 181.01 0.780029C184.09 0.780029 186.59 3.29003 186.59 6.36003V168.51C186.59 171.6 184.09 174.09 181.01 174.09Z" fill="url(#paint10_linear_1_41)"/>
<path d="M216.08 174.09C213 174.09 210.5 171.6 210.5 168.51V6.36003C210.5 3.28003 213 0.780029 216.08 0.780029C219.16 0.780029 221.66 3.29003 221.66 6.36003V168.51C221.66 171.6 219.16 174.09 216.08 174.09Z" fill="url(#paint11_linear_1_41)"/>
<path d="M233.61 164.26C230.53 164.26 228.03 161.77 228.03 158.68V8.60002C228.03 5.51002 230.53 3.02002 233.61 3.02002C236.69 3.02002 239.2 5.51002 239.2 8.60002V158.68C239.2 161.77 236.7 164.26 233.61 164.26V164.26Z" fill="url(#paint12_linear_1_41)"/>
<path d="M251.2 161.97C248.12 161.97 245.62 159.48 245.62 156.39V12.56C245.62 9.46998 248.12 6.97998 251.2 6.97998C254.28 6.97998 256.78 9.46998 256.78 12.56V156.39C256.78 159.48 254.28 161.97 251.2 161.97V161.97Z" fill="url(#paint13_linear_1_41)"/>
<path d="M268.73 166.05C265.65 166.05 263.15 163.54 263.15 160.47V18.1401C263.15 15.0501 265.65 12.5601 268.73 12.5601C271.81 12.5601 274.31 15.0601 274.31 18.1401V160.47C274.31 163.55 271.82 166.05 268.73 166.05Z" fill="url(#paint14_linear_1_41)"/>
<path d="M286.27 178.73C283.19 178.73 280.69 176.22 280.69 173.15V25.6701C280.69 22.5901 283.19 20.0901 286.27 20.0901C289.35 20.0901 291.85 22.6001 291.85 25.6701V173.15C291.85 176.23 289.35 178.73 286.27 178.73V178.73Z" fill="url(#paint15_linear_1_41)"/>
<path d="M303.8 190.89C300.72 190.89 298.22 188.39 298.22 185.32V35.2901C298.22 32.2001 300.72 29.7101 303.8 29.7101C306.88 29.7101 309.38 32.2101 309.38 35.2901V185.32C309.38 188.4 306.88 190.89 303.8 190.89Z" fill="url(#paint16_linear_1_41)"/>
<path d="M321.39 170.4C318.3 170.4 315.81 167.91 315.81 164.83V47.46C315.81 44.37 318.31 41.88 321.39 41.88C324.47 41.88 326.97 44.37 326.97 47.46V164.83C326.97 167.91 324.47 170.4 321.39 170.4Z" fill="url(#paint17_linear_1_41)"/>
<path d="M338.92 162.98C335.84 162.98 333.34 160.48 333.34 157.4V62.69C333.34 59.61 335.84 57.11 338.92 57.11C342 57.11 344.5 59.62 344.5 62.69V157.39C344.5 160.48 342 162.97 338.92 162.97V162.98Z" fill="url(#paint18_linear_1_41)"/>
<path d="M356.46 162.42C353.37 162.42 350.88 159.93 350.88 156.84V82.18C350.88 79.1 353.38 76.6 356.46 76.6C359.54 76.6 362.04 79.11 362.04 82.18V156.84C362.04 159.93 359.54 162.42 356.46 162.42V162.42Z" fill="url(#paint19_linear_1_41)"/>
<path d="M373.98 168.45C370.9 168.45 368.4 165.95 368.4 162.87V108.44C368.4 105.35 370.9 102.86 373.98 102.86C377.06 102.86 379.56 105.36 379.56 108.44V162.87C379.56 165.96 377.06 168.45 373.98 168.45Z" fill="url(#paint20_linear_1_41)"/>
<path d="M391.52 184.98C388.44 184.98 385.94 182.47 385.94 179.4V150.25C385.94 147.17 388.44 144.67 391.52 144.67C394.6 144.67 397.1 147.18 397.1 150.25V179.4C397.1 182.48 394.6 184.98 391.52 184.98Z" fill="url(#paint21_linear_1_41)"/>
<path d="M173.42 337.81C156.48 337.81 142.71 324.03 142.71 307.1C142.71 304.01 145.21 301.52 148.29 301.52C151.37 301.52 153.87 304.01 153.87 307.1C153.87 317.88 162.64 326.65 173.41 326.65C184.18 326.65 192.96 317.88 192.96 307.1V5.58C192.96 2.49 195.46 0 198.54 0C201.62 0 204.12 2.5 204.12 5.58V307.1C204.12 324.03 190.34 337.81 173.41 337.81H173.42Z" fill="url(#paint22_linear_1_41)"/>
<defs>
<linearGradient id="paint0_linear_1_41" x1="5.58" y1="-0.819947" x2="5.58" y2="184.4" gradientUnits="userSpaceOnUse">
<stop stop-color="#6DD5ED"/>
<stop offset="1" stop-color="#000DD4"/>
</linearGradient>
<linearGradient id="paint1_linear_1_41" x1="23.11" y1="-0.780013" x2="23.11" y2="184.4" gradientUnits="userSpaceOnUse">
<stop stop-color="#6DD5ED"/>
<stop offset="1" stop-color="#000DD4"/>
</linearGradient>
<linearGradient id="paint2_linear_1_41" x1="40.64" y1="-0.800029" x2="40.64" y2="184.4" gradientUnits="userSpaceOnUse">
<stop stop-color="#6DD5ED"/>
<stop offset="1" stop-color="#000DD4"/>
</linearGradient>
<linearGradient id="paint3_linear_1_41" x1="58.18" y1="-0.800008" x2="58.18" y2="184.4" gradientUnits="userSpaceOnUse">
<stop stop-color="#6DD5ED"/>
<stop offset="1" stop-color="#000DD4"/>
</linearGradient>
<linearGradient id="paint4_linear_1_41" x1="75.71" y1="-0.789991" x2="75.71" y2="184.39" gradientUnits="userSpaceOnUse">
<stop stop-color="#6DD5ED"/>
<stop offset="1" stop-color="#000DD4"/>
</linearGradient>
<linearGradient id="paint5_linear_1_41" x1="93.29" y1="-0.789914" x2="93.29" y2="184.39" gradientUnits="userSpaceOnUse">
<stop stop-color="#6DD5ED"/>
<stop offset="1" stop-color="#000DD4"/>
</linearGradient>
<linearGradient id="paint6_linear_1_41" x1="110.83" y1="-0.799912" x2="110.83" y2="184.41" gradientUnits="userSpaceOnUse">
<stop stop-color="#6DD5ED"/>
<stop offset="1" stop-color="#000DD4"/>
</linearGradient>
<linearGradient id="paint7_linear_1_41" x1="128.36" y1="-0.799942" x2="128.36" y2="184.4" gradientUnits="userSpaceOnUse">
<stop stop-color="#6DD5ED"/>
<stop offset="1" stop-color="#000DD4"/>
</linearGradient>
<linearGradient id="paint8_linear_1_41" x1="145.89" y1="-0.79002" x2="145.89" y2="184.39" gradientUnits="userSpaceOnUse">
<stop stop-color="#6DD5ED"/>
<stop offset="1" stop-color="#000DD4"/>
</linearGradient>
<linearGradient id="paint9_linear_1_41" x1="163.48" y1="-0.78998" x2="163.48" y2="184.39" gradientUnits="userSpaceOnUse">
<stop stop-color="#6DD5ED"/>
<stop offset="1" stop-color="#000DD4"/>
</linearGradient>
<linearGradient id="paint10_linear_1_41" x1="181.01" y1="-0.799971" x2="181.01" y2="184.4" gradientUnits="userSpaceOnUse">
<stop stop-color="#6DD5ED"/>
<stop offset="1" stop-color="#000DD4"/>
</linearGradient>
<linearGradient id="paint11_linear_1_41" x1="216.08" y1="-0.799971" x2="216.08" y2="184.4" gradientUnits="userSpaceOnUse">
<stop stop-color="#6DD5ED"/>
<stop offset="1" stop-color="#000DD4"/>
</linearGradient>
<linearGradient id="paint12_linear_1_41" x1="233.61" y1="-0.78998" x2="233.61" y2="184.39" gradientUnits="userSpaceOnUse">
<stop stop-color="#6DD5ED"/>
<stop offset="1" stop-color="#000DD4"/>
</linearGradient>
<linearGradient id="paint13_linear_1_41" x1="251.2" y1="-0.79002" x2="251.2" y2="184.39" gradientUnits="userSpaceOnUse">
<stop stop-color="#6DD5ED"/>
<stop offset="1" stop-color="#000DD4"/>
</linearGradient>
<linearGradient id="paint14_linear_1_41" x1="268.73" y1="-0.799942" x2="268.73" y2="184.4" gradientUnits="userSpaceOnUse">
<stop stop-color="#6DD5ED"/>
<stop offset="1" stop-color="#000DD4"/>
</linearGradient>
<linearGradient id="paint15_linear_1_41" x1="286.27" y1="-0.799912" x2="286.27" y2="184.41" gradientUnits="userSpaceOnUse">
<stop stop-color="#6DD5ED"/>
<stop offset="1" stop-color="#000DD4"/>
</linearGradient>
<linearGradient id="paint16_linear_1_41" x1="303.8" y1="-0.789914" x2="303.8" y2="184.39" gradientUnits="userSpaceOnUse">
<stop stop-color="#6DD5ED"/>
<stop offset="1" stop-color="#000DD4"/>
</linearGradient>
<linearGradient id="paint17_linear_1_41" x1="321.39" y1="-0.789991" x2="321.39" y2="184.39" gradientUnits="userSpaceOnUse">
<stop stop-color="#6DD5ED"/>
<stop offset="1" stop-color="#000DD4"/>
</linearGradient>
<linearGradient id="paint18_linear_1_41" x1="338.92" y1="-0.800008" x2="338.92" y2="184.4" gradientUnits="userSpaceOnUse">
<stop stop-color="#6DD5ED"/>
<stop offset="1" stop-color="#000DD4"/>
</linearGradient>
<linearGradient id="paint19_linear_1_41" x1="356.46" y1="-0.800029" x2="356.46" y2="184.4" gradientUnits="userSpaceOnUse">
<stop stop-color="#6DD5ED"/>
<stop offset="1" stop-color="#000DD4"/>
</linearGradient>
<linearGradient id="paint20_linear_1_41" x1="373.98" y1="-0.780013" x2="373.98" y2="184.4" gradientUnits="userSpaceOnUse">
<stop stop-color="#6DD5ED"/>
<stop offset="1" stop-color="#000DD4"/>
</linearGradient>
<linearGradient id="paint21_linear_1_41" x1="391.52" y1="4.85112e-05" x2="391.52" y2="4.85112e-05" gradientUnits="userSpaceOnUse">
<stop stop-color="#6DD5ED"/>
<stop offset="1" stop-color="#000DD4"/>
</linearGradient>
<linearGradient id="paint22_linear_1_41" x1="173.42" y1="-0.79" x2="173.42" y2="184.4" gradientUnits="userSpaceOnUse">
<stop stop-color="#6DD5ED"/>
<stop offset="1" stop-color="#000DD4"/>
</linearGradient>
</defs>
</svg>