<svg fill="#fff" opacity="0.8" xmlns="http://www.w3.org/2000/svg" data-name="Layer 1" viewBox="0 0 234.27 237.5">
  <path d="M14.33 61.45a120.66 120.66 0 0 0 15.27 136.2 116.69 116.69 0 0 0 58.53 36.27 114.8 114.8 0 0 0 22.31 3.47c1.56.07 3.13.11 4.73.11a146.46 146.46 0 0 0 17-.94c.67-.08 1.34-.15 2-.25l.78-.11a114.92 114.92 0 0 0 23.05-6.13c20.77-8.91 31-25.37 31-46.85 0-24.58-10.86-41.55-74.66-52.58C56 120.24 20.36 102.47 14.33 61.45ZM201.9 36.79A116 116 0 0 0 117.21 0c-1.66 0-3.32.05-5 .12a115.41 115.41 0 0 0-40.33 9.11c-15.16 8.4-22.44 22-22.44 38.2 0 25.35 13.34 38 72.56 49 57.41 11.1 95 27.05 101.57 71.73A119.81 119.81 0 0 0 201.9 36.79" class="cls-1"/>
</svg>